<svg width="133" height="128" viewBox="0 0 133 128" fill="none" xmlns="http://www.w3.org/2000/svg">
<path d="M78.4745 74.3573C78.4831 78.7183 82.0206 82.2488 86.3816 82.2488H120.134C123.643 82.2488 126.488 79.4036 126.488 75.8923C126.488 74.1375 125.779 72.547 124.629 71.397C123.479 70.247 121.888 69.5358 120.134 69.5358H122.415C125.925 69.5358 128.772 66.6926 128.772 63.1792C128.772 61.4227 128.063 59.836 126.909 58.6839C125.761 57.534 124.172 56.8248 122.415 56.8248H124.699C128.165 56.8248 130.983 54.0474 131.051 50.5956C131.123 47.0289 128.122 44.112 124.555 44.112H122.415C125.925 44.112 128.772 41.2668 128.772 37.7534C128.772 35.9969 128.063 34.4102 126.909 33.2581C125.761 32.1081 124.172 31.399 122.415 31.399H104.538C104.513 31.359 104.505 31.3468 104.479 31.3068L111.451 16.4558C113.429 12.2455 111.617 7.22965 107.406 5.25152C106.25 4.70834 105.033 4.45221 103.834 4.45221C100.669 4.45221 97.6371 6.24383 96.2021 9.29792L93.2218 15.6482C91.4611 19.3972 88.6405 22.5663 85.0698 24.6611C82.7124 26.0426 80.7488 28.1498 79.5497 30.8475C78.732 32.6882 78.3649 34.6274 78.3997 36.5315L78.4745 74.3573Z" fill="#FFDDCE"/>
<path d="M110.012 7.15638C109.725 7.12572 109.438 7.11118 109.151 7.11118C105.986 7.11118 102.955 8.9028 101.52 11.9569L98.5395 18.3072C96.7788 22.0561 93.9582 25.2253 90.3875 27.3201C88.0301 28.7015 79.5502 30.8477 79.2367 46.912C79.212 48.1664 78.7589 49.3248 78.427 50.4807L78.4002 36.5317C78.3654 34.6273 78.7322 32.6884 79.5502 30.8477C80.7493 28.1503 82.7131 26.0431 85.0703 24.6614C88.641 22.5663 91.4616 19.3974 93.2223 15.6484L96.2026 9.29816C97.6376 6.24407 100.669 4.45245 103.834 4.45245C105.033 4.45245 106.251 4.70858 107.407 5.25176C108.421 5.72765 109.297 6.38175 110.012 7.15638Z" fill="#FFCBBE"/>
<path d="M126.488 75.8925C126.488 79.4038 123.643 82.249 120.134 82.249H85.5004C81.8354 82.249 78.4368 80.4779 76.3337 77.5673H120.134C122.817 77.5673 125.111 75.9047 126.043 73.5518C126.046 73.5538 126.046 73.558 126.05 73.5601C126.05 73.5601 126.048 73.5622 126.05 73.5622C126.333 74.2833 126.488 75.0704 126.488 75.8925V75.8925Z" fill="#FFCBBE"/>
<path d="M128.323 60.8384C128.61 61.5634 128.769 62.3529 128.769 63.1792C128.769 66.692 125.925 69.5367 122.415 69.5367H119.979C118.686 69.5367 117.638 68.4885 117.638 67.1957C117.638 65.9028 118.686 64.8547 119.979 64.8547H122.415C125.098 64.8549 127.391 63.1914 128.323 60.8384Z" fill="#FFCBBE"/>
<path d="M130.607 48.1259C130.894 48.8509 131.053 49.6403 131.053 50.4667C131.053 53.9795 128.208 56.8242 124.698 56.8242H122.263C120.97 56.8242 119.922 55.776 119.922 54.4832C119.922 53.1903 120.97 52.1421 122.263 52.1421H124.698C127.382 52.1424 129.675 50.4786 130.607 48.1259V48.1259Z" fill="#FFCBBE"/>
<path d="M128.326 35.4131C128.613 36.1382 128.772 36.9276 128.772 37.7539C128.772 41.2667 125.928 44.1114 122.417 44.1114H119.982C118.689 44.1114 117.641 43.0632 117.641 41.7704C117.641 40.4775 118.689 39.4294 119.982 39.4294H122.417C125.101 39.4296 127.394 37.7661 128.326 35.4131V35.4131Z" fill="#FFCBBE"/>
<path d="M58.6301 36.532V76.1702C58.6301 78.9194 60.8587 81.1479 63.6078 81.1479H73.4226C76.1717 81.1479 78.4003 78.9194 78.4003 76.1702V36.532C78.4003 33.7829 76.1717 31.5543 73.4226 31.5543H63.6078C60.8589 31.5543 58.6301 33.7829 58.6301 36.532V36.532Z" fill="#95D6A4"/>
<path d="M58.6292 63.685V76.1714C58.6292 78.9202 60.8592 81.1477 63.6083 81.1477H73.4228C76.1719 81.1477 78.3991 78.9202 78.3991 76.1714V63.685C78.3991 66.4341 76.1716 68.6642 73.4228 68.6642H63.6083C60.8595 68.6642 58.6292 66.4341 58.6292 63.685Z" fill="#78C2A4"/>
<path d="M36.5158 125.962C55.6069 125.962 71.0834 110.485 71.0834 91.3941C71.0834 72.303 55.6069 56.8265 36.5158 56.8265C17.4247 56.8265 1.94824 72.303 1.94824 91.3941C1.94824 110.485 17.4247 125.962 36.5158 125.962Z" fill="#D3EFFB"/>
<path d="M42.5559 125.46C40.6416 125.791 38.6718 125.962 36.6638 125.962C17.5724 125.962 2.09521 110.484 2.09521 91.3932C2.09521 72.3018 17.5727 56.8246 36.6638 56.8246C38.6718 56.8246 40.6419 56.9947 42.5559 57.3267C26.2741 60.1216 13.8822 74.3101 13.8822 91.3935C13.8822 108.477 26.2739 122.665 42.5559 125.46V125.46Z" fill="#9DC6FB"/>
<path d="M36.5158 95.7966H20.456C18.0241 95.7966 16.0525 93.825 16.0525 91.3931C16.0525 88.9612 18.0241 86.9896 20.456 86.9896H36.5158C38.9477 86.9896 40.9193 88.9612 40.9193 91.3931C40.9193 93.825 38.9477 95.7966 36.5158 95.7966Z" fill="#365E7D"/>
<path d="M36.5158 95.7966C34.0839 95.7966 32.1123 93.825 32.1123 91.393V80.1488C32.1123 77.7169 34.0839 75.7453 36.5158 75.7453C38.9478 75.7453 40.9194 77.7169 40.9194 80.1488V91.393C40.9194 93.825 38.9478 95.7966 36.5158 95.7966Z" fill="#2B4D66"/>
<path d="M56.4709 14.4152L55.9656 14.5506C54.1836 15.028 52.3359 14.0443 51.7377 12.2989L49.8972 6.93062C49.238 5.00784 50.3451 2.92894 52.3086 2.40265L53.5641 2.06626C55.5274 1.54023 57.5258 2.7871 57.9162 4.78184L59.0064 10.351C59.361 12.1618 58.2528 13.9378 56.4709 14.4152V14.4152Z" fill="#F6E266"/>
<path d="M41.3467 22.9907L40.9768 23.3606C39.6722 24.6651 37.5804 24.7368 36.1896 23.5245L31.9115 19.7958C30.3791 18.4601 30.2986 16.1061 31.7359 14.6689L32.6549 13.7498C34.0922 12.3125 36.4462 12.3931 37.7819 13.9254L41.5106 18.2035C42.7229 19.5943 42.6512 21.6862 41.3467 22.9907V22.9907Z" fill="#F6E266"/>
<path d="M32.5368 37.9796L32.4015 38.4849C31.924 40.2669 30.148 41.375 28.3375 41.0204L22.7684 39.9302C20.7736 39.5398 19.5267 37.5414 20.0528 35.5781L20.3892 34.3226C20.9152 32.3593 22.9941 31.252 24.9171 31.9113L30.2854 33.7517C32.0303 34.3502 33.0143 36.1976 32.5368 37.9796V37.9796Z" fill="#F6E266"/>
<path d="M130.72 63.1797C130.72 61.1587 130.004 59.2481 128.691 57.7381C131.204 56.3434 132.939 53.6823 132.998 50.6363C133.043 48.4285 132.202 46.3288 130.63 44.7242C130.046 44.1288 129.379 43.6259 128.657 43.2282C129.941 41.7655 130.72 39.8489 130.72 37.7539C130.72 35.5329 129.856 33.4469 128.289 31.8836C126.724 30.3152 124.638 29.4517 122.416 29.4517H107.502L113.214 17.2839C115.645 12.1104 113.411 5.92165 108.235 3.48841C106.847 2.83665 105.366 2.50623 103.835 2.50623C99.828 2.50623 96.1401 4.84777 94.4389 8.47179L91.4604 14.8197C91.3668 15.0185 91.271 15.2148 91.1707 15.4086C90.6761 16.3641 91.0492 17.5398 92.0048 18.0346C92.9597 18.5292 94.136 18.1562 94.6308 17.2008C94.7537 16.9636 94.8711 16.7233 94.9867 16.4776L97.966 10.1268C99.0282 7.86446 101.332 6.40248 103.834 6.40248C104.789 6.40248 105.712 6.60848 106.578 7.01476C109.809 8.53414 111.205 12.3974 109.688 15.6274L102.715 30.4783C102.435 31.0758 102.476 31.7748 102.824 32.3351L102.884 32.4286C103.24 33.0004 103.865 33.3479 104.538 33.3479H122.416C123.596 33.3479 124.702 33.8051 125.534 34.6387C126.366 35.4687 126.824 36.575 126.824 37.7536C126.824 40.1858 124.847 42.1645 122.416 42.1645C121.339 42.1645 120.467 43.0368 120.467 44.1127C120.467 45.1887 121.339 46.061 122.416 46.061H124.556C125.781 46.061 126.981 46.5675 127.846 47.451C128.68 48.3017 129.126 49.4047 129.102 50.5583C129.056 52.9399 127.081 54.8772 124.699 54.8772H122.416C121.339 54.8772 120.467 55.7495 120.467 56.8255C120.467 57.9015 121.339 58.7738 122.416 58.7738C123.595 58.7738 124.702 59.2307 125.532 60.0607C126.365 60.8937 126.824 62.0011 126.824 63.1794C126.824 65.6101 124.847 67.5877 122.416 67.5877H120.135C119.059 67.5877 118.187 68.46 118.187 69.5359C118.187 70.6119 119.059 71.4842 120.135 71.4842C121.311 71.4842 122.418 71.9427 123.248 72.7708C123.669 73.1932 123.996 73.6847 124.22 74.232C124.226 74.2468 124.231 74.2614 124.237 74.2759C124.438 74.7877 124.54 75.3316 124.54 75.8925C124.54 78.3231 122.564 80.3007 120.135 80.3007H85.5C83.4759 80.3007 81.5487 79.662 79.9511 78.4808C80.2077 77.7579 80.3488 76.9804 80.3488 76.1704V36.5324C80.3488 36.5241 80.3483 36.5158 80.3483 36.5075C80.3483 36.5033 80.3488 36.4995 80.3485 36.4953C80.3163 34.813 80.6465 33.1791 81.3292 31.6402C82.3233 29.4039 83.9572 27.5717 86.0533 26.3425C87.2415 25.6469 88.3735 24.8289 89.4176 23.9114C90.2257 23.2012 90.3052 21.9701 89.595 21.162C88.8848 20.3536 87.6535 20.2743 86.8453 20.9846C85.9876 21.7384 85.0589 22.4096 84.0835 22.9809C81.2793 24.6255 79.0957 27.0725 77.768 30.059C77.6464 30.3333 77.5342 30.6103 77.4293 30.8887C76.2975 30.0829 74.9155 29.607 73.4234 29.607H63.6068C59.7895 29.607 56.6839 32.7136 56.6839 36.5324V60.9683C50.9013 57.1222 43.9662 54.8772 36.5156 54.8772C16.381 54.8775 0 71.2582 0 91.3928C0 93.5151 0.183656 95.6403 0.546292 97.7088C0.732286 98.7687 1.74278 99.4778 2.8016 99.2916C3.86145 99.1058 4.57036 98.0961 4.38462 97.0363C4.17187 95.8219 4.02952 94.5848 3.95574 93.3408H9.25994C10.3362 93.3408 11.2082 92.4685 11.2082 91.3926C11.2082 90.3166 10.3362 89.4443 9.25994 89.4443H3.95626C4.22409 84.9228 5.41668 80.6465 7.34753 76.8019L9.39476 77.9839C9.70181 78.161 10.0367 78.2452 10.3671 78.2452C11.0404 78.2452 11.6953 77.8955 12.0561 77.2708C12.5941 76.339 12.2748 75.1474 11.343 74.6095L9.30151 73.4309C11.7319 69.7609 14.8839 66.6091 18.5539 64.1785L19.7325 66.22C20.0933 66.845 20.7482 67.1944 21.4215 67.1944C21.7519 67.1944 22.087 67.1102 22.3938 66.9331C23.3256 66.3951 23.6449 65.2035 23.1069 64.2718L21.9252 62.2248C25.7698 60.2939 30.0461 59.1013 34.5673 58.8335V64.1367C34.5673 65.2126 35.4394 66.0849 36.5156 66.0849C37.5918 66.0849 38.4638 65.2126 38.4638 64.1367V58.8335C42.9853 59.1013 47.2614 60.2939 51.1059 62.2248L49.9243 64.2715C49.3863 65.2033 49.7055 66.3948 50.6373 66.9328C50.9444 67.11 51.2792 67.1941 51.6096 67.1941C52.283 67.1941 52.9378 66.8445 53.2986 66.2197L54.477 64.1788C58.147 66.6091 61.2987 69.7609 63.7291 73.4309L61.6881 74.6092C60.7563 75.1472 60.4371 76.3387 60.9751 77.2705C61.3359 77.8955 61.9907 78.2449 62.6641 78.2449C62.9945 78.2449 63.3296 78.1608 63.6364 77.9836L65.6831 76.8019C67.6142 80.6465 68.8065 84.9225 69.0743 89.444H63.7715C62.6952 89.444 61.8232 90.3163 61.8232 91.3923C61.8232 92.4682 62.6952 93.3405 63.7715 93.3405H69.0743C68.8065 97.8618 67.6142 102.138 65.6833 105.983L63.6366 104.801C62.7041 104.263 61.5128 104.582 60.9753 105.514C60.4373 106.446 60.7566 107.637 61.6884 108.175L63.7296 109.354C61.2992 113.024 58.1475 116.176 54.4775 118.606L53.2989 116.565C52.7612 115.633 51.5696 115.314 50.6376 115.852C49.7058 116.39 49.3865 117.582 49.9245 118.513L51.1062 120.56C47.2616 122.491 42.9853 123.684 38.4641 123.952V118.649C38.4641 117.573 37.592 116.701 36.5158 116.701C35.4396 116.701 34.5676 117.573 34.5676 118.649V123.949C30.0866 123.684 25.7981 122.511 21.9187 120.573L23.1071 118.514C23.6451 117.582 23.3259 116.391 22.3941 115.853C21.4618 115.314 20.2705 115.634 19.7327 116.566L18.5417 118.629C14.8966 116.224 11.7358 113.087 9.28358 109.365L11.3433 108.176C12.2751 107.638 12.5943 106.446 12.0563 105.515C11.5186 104.583 10.3266 104.263 9.39502 104.802L7.34 105.988C7.02854 105.365 6.73136 104.731 6.45731 104.083C6.0383 103.092 4.89559 102.628 3.90431 103.047C2.9133 103.466 2.44935 104.609 2.86836 105.6C8.59598 119.152 21.8034 127.909 36.5156 127.909C56.6502 127.909 73.0309 111.528 73.0309 91.3931C73.0309 88.54 72.7012 85.7626 72.0794 83.0961H73.4234C75.0212 83.0961 76.4931 82.5508 77.6662 81.6385C79.9243 83.2997 82.6438 84.1978 85.5 84.1978H120.135C124.713 84.1978 128.437 80.4722 128.437 75.893C128.437 74.8643 128.252 73.8619 127.887 72.9119C127.879 72.8882 127.87 72.8649 127.861 72.8415C127.514 71.9669 127.029 71.1681 126.414 70.4573C128.979 69.0421 130.72 66.3104 130.72 63.1797V63.1797ZM73.4234 79.1993H70.9345C68.8255 73.2639 65.223 68.0306 60.5802 63.9535V36.5324C60.5802 34.8624 61.938 33.5035 63.6065 33.5035H73.4231C75.0932 33.5035 76.4518 34.8624 76.4518 36.5324V76.1704C76.4523 77.8407 75.0934 79.1993 73.4234 79.1993V79.1993Z" fill="black"/>
<path d="M36.5163 97.745C36.5166 97.745 36.5166 97.745 36.5163 97.745C40.0188 97.7447 42.8679 94.8953 42.8679 91.3931V80.1485C42.8679 76.6461 40.0185 73.7967 36.5161 73.7967C33.0136 73.7967 30.1642 76.6461 30.1642 80.1485V85.041H20.4546C16.9522 85.041 14.1028 87.8904 14.1028 91.3931C14.1028 94.8956 16.9522 97.745 20.4546 97.745H36.5163ZM34.0607 80.1485C34.0607 78.7946 35.1622 77.6932 36.5161 77.6932C37.87 77.6932 38.9714 78.7946 38.9714 80.1485V91.3931C38.9714 92.747 37.87 93.8484 36.5161 93.8484C35.1622 93.8484 34.0607 92.747 34.0607 91.3931V80.1485ZM17.9993 91.3928C17.9993 90.0389 19.1007 88.9373 20.4546 88.9373H30.1642V91.3928C30.1642 92.2628 30.3404 93.0925 30.6583 93.8482H20.4546C19.1007 93.8484 17.9993 92.7468 17.9993 91.3928Z" fill="black"/>
<path d="M49.8946 12.9309C50.6645 15.1766 52.7873 16.6177 55.0663 16.6177C55.5307 16.6177 56.0022 16.5577 56.4693 16.4325L56.9745 16.2972H56.9748C59.735 15.5574 61.4671 12.7813 60.9183 9.97711L59.828 4.408C59.5386 2.92942 58.6396 1.62384 57.3613 0.826356C56.083 0.0283568 54.5148 -0.205172 53.0596 0.184735L51.8039 0.521131C50.3487 0.911039 49.1078 1.89737 48.3996 3.22737C47.6915 4.55736 47.5655 6.13752 48.0542 7.56259L49.8946 12.9309ZM51.8389 5.05871C52.0447 4.6727 52.3904 4.39787 52.8128 4.28487L54.0682 3.94847C54.2038 3.91211 54.3407 3.89418 54.4766 3.89418C54.7642 3.89418 55.0468 3.97471 55.2988 4.13213C55.6697 4.36358 55.9204 4.72751 56.0043 5.15664L57.0945 10.7258C57.2514 11.5276 56.756 12.322 55.9666 12.5335L55.4611 12.6688C54.6722 12.8802 53.8456 12.4405 53.5807 11.6671L51.7402 6.29909C51.5984 5.88528 51.6335 5.44472 51.8389 5.05871V5.05871Z" fill="black"/>
<path d="M30.6314 21.2645L34.9092 24.9934C35.9356 25.8878 37.2152 26.3307 38.4927 26.3307C39.896 26.3307 41.2966 25.7958 42.3544 24.7383L42.7243 24.3684C44.7447 22.348 44.857 19.0775 42.9791 16.9235L39.2504 12.6455C38.2605 11.5095 36.8292 10.8284 35.3233 10.777C33.8242 10.7253 32.3428 11.3066 31.2772 12.3722L30.3582 13.2912C29.2926 14.3568 28.7112 15.8312 28.7629 17.3371C28.8144 18.8432 29.4955 20.2745 30.6314 21.2645ZM33.1135 16.0466L34.0325 15.1275C34.3287 14.8314 34.7181 14.6703 35.1342 14.6703C35.1527 14.6703 35.1714 14.6706 35.1898 14.6714C35.627 14.6864 36.026 14.8761 36.3133 15.2057L40.042 19.4838C40.5789 20.1 40.5469 21.0354 39.969 21.6133L39.5993 21.983C39.0211 22.5612 38.0862 22.5929 37.4695 22.056L33.1917 18.3273C32.8618 18.04 32.6722 17.641 32.6571 17.2038C32.642 16.7666 32.8041 16.3557 33.1135 16.0466V16.0466Z" fill="black"/>
<path d="M22.3932 41.8423L27.9626 42.9325C28.3122 43.0009 28.6608 43.0338 29.0055 43.0338C31.4271 43.0338 33.6353 41.4051 34.2824 38.9893L34.4178 38.4841V38.4838C35.1573 35.7235 33.6192 32.8355 30.9164 31.9086L25.5481 30.0682C24.1225 29.5796 22.5428 29.7055 21.2126 30.4139C19.8828 31.1223 18.8965 32.3632 18.5069 33.8179L18.1702 35.0736C17.78 36.5291 18.0138 38.0967 18.8116 39.3753C19.6093 40.6536 20.9149 41.5529 22.3932 41.8423V41.8423ZM21.934 36.0828L22.2709 34.8268C22.3839 34.4044 22.6587 34.0587 23.0447 33.853C23.2751 33.7303 23.5245 33.6685 23.7759 33.6685C23.9461 33.6685 24.1175 33.6968 24.2846 33.7543L29.6531 35.5947C30.4262 35.8596 30.866 36.6857 30.6545 37.4751L30.5192 37.9806C30.3077 38.7701 29.5131 39.2654 28.7115 39.1085L23.1421 38.0183C22.7132 37.9344 22.3491 37.6837 22.1179 37.3128C21.8859 36.9416 21.8207 36.5049 21.934 36.0828Z" fill="black"/>
</svg>
