<svg width="133" height="134" viewBox="0 0 133 134" fill="none" xmlns="http://www.w3.org/2000/svg">
<path d="M97.9325 31.1721V125.208L66.7603 126.455L0 129.105V35.0686C0 32.886 1.71386 31.1721 3.89652 31.1721H97.9325Z" fill="#00607F"/>
<path d="M97.9324 31.1721V125.208L66.7603 126.455V31.1721H97.9324Z" fill="#002C3C"/>
<path d="M130.307 11.5414L109.242 1.40436C108.302 0.950785 107.233 0.886858 106.262 1.23998C105.288 1.5789 104.489 2.29427 104.04 3.2268L78.2856 56.7583L111.254 60.1373L116.927 48.3452L116.642 44.1778L120.306 41.3203L123.684 34.2995L123.4 30.1331L127.063 27.2746L132.13 16.7428C133.062 14.8017 132.248 12.4739 130.307 11.5414V11.5414Z" fill="#FFE477"/>
<path d="M113.016 20.5176C111.091 19.5851 108.754 20.4039 107.815 22.34C106.882 24.2812 107.697 26.6099 109.637 27.5415L123.685 34.2995L127.064 27.2746L113.016 20.5176Z" fill="#FF9100"/>
<path d="M101.057 36.3847C100.124 38.3259 100.939 40.6547 102.879 41.5872L116.927 48.3452L120.306 41.3203L106.258 34.5623C104.336 33.6338 102.001 34.4527 101.057 36.3847Z" fill="#FF9100"/>
<path d="M47.2775 31.1721V77.9303H23.8984V31.1721L31.6915 23.3791H39.4845L47.2775 31.1721Z" fill="#75EFFF"/>
<path d="M47.2779 31.1721V77.9303H35.5884V23.3791H39.4849L47.2779 31.1721Z" fill="#00CEEE"/>
<path d="M47.2775 31.1721V27.2756C47.2775 26.9641 47.1994 26.3401 47.0431 26.0285L39.2501 2.64943C38.7833 1.09082 37.3019 0 35.588 0C33.8741 0 32.3926 1.09082 31.9259 2.64943L24.1328 26.0285C23.9766 26.3401 23.8984 26.9641 23.8984 27.2756V31.1721H47.2775Z" fill="#FFBCAB"/>
<path d="M47.2779 31.1721V27.2756C47.2779 26.9641 47.1998 26.3401 47.0435 26.0285L39.2505 2.64943C38.7837 1.09082 37.3022 0 35.5884 0V31.1721H47.2779Z" fill="#FF9468"/>
<path d="M55.0708 23.3791H78.4499V70.1373H55.0708V23.3791Z" fill="#ECECF1"/>
<path d="M66.7603 23.3791H78.4498V70.1373H66.7603V23.3791Z" fill="#BABAC0"/>
<path d="M132.142 56.0317C131.363 55.0972 130.272 54.5513 129.103 54.5513H20.0018C18.2098 54.5513 16.3133 55.7983 15.9237 57.5903L0.0779535 128.247C-0.156444 129.416 0.156086 130.584 0.85725 131.52C1.63655 132.455 2.72736 133 3.89631 133H113.517C115.309 133 116.946 131.753 117.336 129.961L132.922 59.3052C133.156 58.1362 132.844 56.9673 132.142 56.0317V56.0317Z" fill="#FFE477"/>
<path d="M132.923 59.3052L117.337 129.962C116.947 131.754 115.31 133.001 113.518 133.001H66.7603V54.5513H129.105C130.274 54.5513 131.364 55.0972 132.144 56.0317C132.845 56.9673 133.157 58.1363 132.923 59.3052V59.3052Z" fill="#FFB655"/>
<path d="M97.9324 94.0359H66.7603C64.5776 94.0359 62.8638 95.7498 62.8638 97.9325V113.519C62.8638 115.7 64.5776 117.415 66.7603 117.415H97.9324C100.115 117.415 101.829 115.7 101.829 113.519V97.9325C101.829 95.7498 100.115 94.0359 97.9324 94.0359Z" fill="#00607F"/>
<path d="M69.6442 1.3242C68.943 0.467777 67.8512 0.078125 66.7604 0.078125C65.6696 0.078125 64.5777 0.467777 63.8766 1.3242C61.773 3.66211 51.1743 15.8194 51.1743 23.3791C51.1743 31.9514 58.188 38.9652 66.7604 38.9652C75.3327 38.9652 82.3465 31.9514 82.3465 23.3791C82.3465 15.8194 71.7477 3.66211 69.6442 1.3242V1.3242Z" fill="#FF728B"/>
<path d="M82.3463 23.3791C82.3463 31.9514 75.3326 38.9652 66.7603 38.9652V0.078125C67.8511 0.078125 68.9429 0.467777 69.6441 1.3242C71.7476 3.66211 82.3463 15.8194 82.3463 23.3791Z" fill="#FF3F62"/>
<path d="M101.829 97.9325V113.519C101.829 115.7 100.115 117.415 97.9324 117.415H66.7603V94.0359H97.9324C100.115 94.0359 101.829 95.7498 101.829 97.9325Z" fill="#002C3C"/>
</svg>
