<svg width="133" height="122" viewBox="0 0 133 122" fill="none" xmlns="http://www.w3.org/2000/svg">
<path d="M56.4385 115.623V114.712H38.7958C37.2069 114.712 35.9187 116 35.9187 117.589C35.9187 119.178 37.2069 120.466 38.7958 120.466H61.2804C58.6177 120.465 56.4385 118.287 56.4385 115.623V115.623Z" fill="#EDF4FC"/>
<path d="M48.2283 101.526H56.4385V114.712H48.2283V101.526Z" fill="#C7D7E5"/>
<path d="M94.9145 114.896V65.3372C94.9145 62.2736 97.4209 59.7678 100.484 59.7678H118.42V41.1827C118.42 38.5195 116.241 36.3408 113.578 36.3408H61.2809C58.6177 36.3408 56.439 38.5195 56.439 41.1827V115.623C56.439 118.286 58.6177 120.465 61.2809 120.465H100.484C97.4209 120.465 94.9145 117.959 94.9145 114.896V114.896Z" fill="#5290DB"/>
<path d="M56.4386 41.1827C56.4386 38.5195 58.6173 36.3408 61.2805 36.3408H113.578C116.24 36.3408 118.42 38.5195 118.42 41.1822V18.6016C118.42 15.2234 115.655 12.459 112.277 12.459H7.44068C4.06252 12.459 1.2981 15.2229 1.2981 18.6016V95.3834C1.2981 98.7621 4.062 101.526 7.44068 101.526H56.4386V41.1827Z" fill="#5290DB"/>
<path d="M126.057 59.7678H100.484C97.4207 59.7678 94.9143 62.2737 94.9143 65.3372V114.896C94.9143 117.959 97.4207 120.465 100.484 120.465H126.057C129.12 120.465 131.627 117.959 131.627 114.896V65.3372C131.627 62.2742 129.12 59.7678 126.057 59.7678V59.7678Z" fill="#5290DB"/>
<path d="M125.099 64.6627H119.369C118.578 64.6627 117.854 65.1336 117.562 65.8688C116.884 67.5751 115.219 68.7813 113.27 68.7813C111.322 68.7813 109.657 67.5745 108.979 65.8688C108.687 65.1336 107.963 64.6627 107.172 64.6627H101.442C100.54 64.6627 99.8091 65.3937 99.8091 66.2957V113.937C99.8091 114.839 100.54 115.57 101.442 115.57H125.098C126 115.57 126.731 114.839 126.731 113.937V66.2957C126.732 65.3937 126.001 64.6627 125.099 64.6627V64.6627Z" fill="#EDF4FC"/>
<path d="M94.9146 114.896V65.3372C94.9146 62.2737 97.421 59.7678 100.484 59.7678H113.135V42.1039C113.135 41.8401 112.921 41.6262 112.656 41.6262H62.2021C61.9383 41.6262 61.7239 41.8401 61.7239 42.1039V114.702C61.7239 114.966 61.9378 115.18 62.2021 115.18H94.9292C94.9245 115.085 94.9146 114.992 94.9146 114.896V114.896Z" fill="#EDF4FC"/>
<path d="M56.4386 85.1456H1.2981V95.3834C1.2981 98.7621 4.062 101.526 7.44068 101.526H56.4386V85.1456Z" fill="#EDF4FC"/>
<path d="M56.4386 41.1827C56.4386 38.5195 58.6173 36.3408 61.2805 36.3408H113.301V18.6015C113.301 18.0387 112.84 17.5781 112.277 17.5781H7.44069C6.87783 17.5781 6.41675 18.0387 6.41675 18.6015V85.1455H56.4386V41.1827Z" fill="#EDF4FC"/>
<path d="M112.277 17.5776H7.44069C6.87783 17.5776 6.41675 18.0382 6.41675 18.6016V23.756H113.301V18.6016C113.301 18.0387 112.84 17.5776 112.277 17.5776V17.5776Z" fill="#5290DB"/>
<path d="M14.7983 17.5776H7.44069C6.87783 17.5776 6.41675 18.0382 6.41675 18.6016V23.756H14.7983V17.5776Z" fill="#FC657E"/>
<path d="M31.0173 79.3145H14.6758C13.5964 79.3145 12.7214 78.4396 12.7214 77.3601V56.346C12.7214 55.2665 13.5964 54.3916 14.6758 54.3916H31.0168C32.0963 54.3916 32.9712 55.2665 32.9712 56.346V77.3601C32.9717 78.4396 32.0968 79.3145 31.0173 79.3145V79.3145Z" fill="#70D6F9"/>
<path d="M56.4387 79.3146V54.3911H40.6378C39.5583 54.3911 38.6833 55.266 38.6833 56.3455V77.3596C38.6833 78.4391 39.5583 79.314 40.6378 79.314H56.4387V79.3146Z" fill="#F5C84C"/>
<path d="M120.852 91.8646H105.69C104.859 91.8646 104.185 92.5385 104.185 93.3698V97.1208C104.185 97.9521 104.859 98.6261 105.69 98.6261H120.852C121.683 98.6261 122.357 97.9521 122.357 97.1208V93.3698C122.357 92.5391 121.683 91.8646 120.852 91.8646Z" fill="#F5C84C"/>
<path d="M120.852 103.619H105.69C104.859 103.619 104.185 104.292 104.185 105.124V108.875C104.185 109.706 104.859 110.38 105.69 110.38H120.852C121.683 110.38 122.357 109.706 122.357 108.875V105.124C122.357 104.292 121.683 103.619 120.852 103.619Z" fill="#FC657E"/>
<path d="M120.852 80.1111H105.69C104.859 80.1111 104.185 80.7851 104.185 81.6164V85.3673C104.185 86.1986 104.859 86.8726 105.69 86.8726H120.852C121.683 86.8726 122.357 86.1986 122.357 85.3673V81.6164C122.357 80.7851 121.683 80.1111 120.852 80.1111Z" fill="#70D6F9"/>
<path d="M69.769 61.5592C68.6729 61.5592 67.7839 62.4476 67.7839 63.5443V71.2472C67.7839 72.3433 68.6724 73.2322 69.769 73.2322H94.9147V65.3377C94.9147 63.8812 95.4858 62.5546 96.4095 61.5597H69.769V61.5592Z" fill="#70D6F9"/>
<path d="M69.769 79.473C68.6729 79.473 67.7839 80.3614 67.7839 81.458V89.1609C67.7839 90.257 68.6724 91.146 69.769 91.146H94.9147V79.4735H69.769V79.473Z" fill="#F5C84C"/>
<path d="M69.769 97.3867C68.6729 97.3867 67.7839 98.2751 67.7839 99.3717V107.075C67.7839 108.171 68.6724 109.06 69.769 109.06H94.9147V97.3872H69.769V97.3867Z" fill="#FC657E"/>
<path d="M132.854 35.1471C130.963 34.795 129.473 33.3355 129.114 31.4833C129.096 31.3904 128.966 31.3904 128.948 31.4833C128.588 33.3355 127.098 34.795 125.207 35.1471C125.112 35.1647 125.112 35.292 125.207 35.3096C127.098 35.6617 128.588 37.1212 128.948 38.9734C128.966 39.0663 129.096 39.0663 129.114 38.9734C129.473 37.1212 130.963 35.6617 132.854 35.3096C132.949 35.292 132.949 35.1647 132.854 35.1471Z" fill="#F5C84C"/>
<path d="M72.7615 3.36246C71.0589 3.0452 69.7167 1.73049 69.3927 0.062698C69.3766 -0.0208993 69.2592 -0.0208993 69.2431 0.062698C68.9196 1.73101 67.5774 3.04572 65.8743 3.36246C65.7886 3.37855 65.7886 3.49279 65.8743 3.50888C67.5769 3.82614 68.9191 5.14085 69.2431 6.80916C69.2592 6.89276 69.3766 6.89276 69.3927 6.80916C69.7162 5.14085 71.0584 3.82614 72.7615 3.50888C72.8472 3.49279 72.8472 3.37855 72.7615 3.36246Z" fill="#FC657E"/>
<path d="M23.5953 110.331H24.8051V109.121C24.8051 108.216 25.5388 107.482 26.4444 107.482C27.3499 107.482 28.0836 108.216 28.0836 109.121V110.331H29.2929C30.1984 110.331 30.9321 111.065 30.9321 111.97C30.9321 112.876 30.1984 113.61 29.2929 113.61H28.0836V114.82C28.0836 115.725 27.3499 116.459 26.4444 116.459C25.5388 116.459 24.8051 115.725 24.8051 114.82V113.61H23.5953C22.6897 113.61 21.9561 112.876 21.9561 111.97C21.9561 111.065 22.6897 110.331 23.5953 110.331V110.331Z" fill="#70D6F9"/>
<path d="M125.511 46.7308C126.479 46.7308 127.264 45.9458 127.264 44.9773C127.264 44.0089 126.479 43.2239 125.511 43.2239C124.542 43.2239 123.757 44.0089 123.757 44.9773C123.757 45.9458 124.542 46.7308 125.511 46.7308Z" fill="#87D147"/>
<path d="M56.452 7.26865C57.4204 7.26865 58.2054 6.4836 58.2054 5.51519C58.2054 4.54677 57.4204 3.76172 56.452 3.76172C55.4835 3.76172 54.6985 4.54677 54.6985 5.51519C54.6985 6.4836 55.4835 7.26865 56.452 7.26865Z" fill="#70D6F9"/>
<path d="M12.836 110.078C13.8044 110.078 14.5895 109.293 14.5895 108.324C14.5895 107.356 13.8044 106.571 12.836 106.571C11.8676 106.571 11.0825 107.356 11.0825 108.324C11.0825 109.293 11.8676 110.078 12.836 110.078Z" fill="#F5C84C"/>
<path d="M61.2809 121.763H38.7963C36.494 121.763 34.6211 119.89 34.6211 117.588C34.6211 115.286 36.494 113.413 38.7963 113.413H56.0937C56.8107 113.413 57.3918 113.994 57.3918 114.712C57.3918 115.429 56.8107 116.01 56.0937 116.01H38.7963C37.9255 116.01 37.2173 116.717 37.2173 117.588C37.2173 118.459 37.9255 119.167 38.7963 119.167H61.2809C61.9979 119.167 62.579 119.748 62.579 120.465C62.579 121.182 61.9974 121.763 61.2809 121.763Z" fill="black"/>
<path d="M48.2283 115.612C47.5112 115.612 46.9302 115.031 46.9302 114.314V101.923C46.9302 101.206 47.5112 100.625 48.2283 100.625C48.9453 100.625 49.5264 101.206 49.5264 101.923V114.314C49.5264 115.031 48.9453 115.612 48.2283 115.612Z" fill="black"/>
<path d="M100.483 121.763H61.2804C57.8944 121.763 55.1404 119.009 55.1404 115.623V41.1827C55.1404 37.7968 57.8949 35.0427 61.2804 35.0427H113.578C116.963 35.0427 119.718 37.7973 119.718 41.1827V59.4319C119.718 60.1489 119.136 60.73 118.419 60.73C117.702 60.73 117.121 60.1489 117.121 59.4319V41.1827C117.121 39.2283 115.531 37.6389 113.578 37.6389H61.2809C59.3265 37.6389 57.7371 39.2288 57.7371 41.1827V115.623C57.7371 117.578 59.327 119.167 61.2809 119.167H100.484C101.201 119.167 101.782 119.748 101.782 120.465C101.782 121.182 101.2 121.763 100.483 121.763Z" fill="black"/>
<path d="M56.1426 102.824H7.44068C3.33818 102.824 0 99.4859 0 95.3834V18.6011C0 14.4986 3.33818 11.1609 7.44068 11.1609H112.277C116.38 11.1609 119.718 14.4986 119.718 18.6011V41.1817C119.718 41.8987 119.137 42.4798 118.42 42.4798C117.702 42.4798 117.121 41.8987 117.121 41.1817V18.6011C117.121 15.9296 114.948 13.7571 112.277 13.7571H7.44068C4.7692 13.7571 2.59619 15.9301 2.59619 18.6011V95.3834C2.59619 98.0549 4.76972 100.228 7.44068 100.228H56.1426C56.8597 100.228 57.4407 100.809 57.4407 101.526C57.4407 102.243 56.8597 102.824 56.1426 102.824V102.824Z" fill="black"/>
<path d="M126.057 121.763H100.483C96.6966 121.763 93.616 118.683 93.616 114.896V65.3372C93.616 61.5504 96.6966 58.4697 100.483 58.4697H126.057C129.844 58.4697 132.925 61.5504 132.925 65.3372V114.896C132.925 118.683 129.844 121.763 126.057 121.763ZM100.483 61.0659C98.1287 61.0659 96.2122 62.9819 96.2122 65.3372V114.896C96.2122 117.251 98.1281 119.167 100.483 119.167H126.057C128.412 119.167 130.329 117.251 130.329 114.896V65.3372C130.329 62.9824 128.413 61.0659 126.057 61.0659H100.483Z" fill="black"/>
<path d="M18.9521 31.285H15.8367C15.1196 31.285 14.5386 30.704 14.5386 29.9869C14.5386 29.2699 15.1196 28.6888 15.8367 28.6888H18.9521C19.6692 28.6888 20.2502 29.2699 20.2502 29.9869C20.2502 30.704 19.6692 31.285 18.9521 31.285Z" fill="black"/>
<path d="M28.0388 31.285H24.9233C24.2063 31.285 23.6252 30.704 23.6252 29.9869C23.6252 29.2699 24.2063 28.6888 24.9233 28.6888H28.0388C28.7558 28.6888 29.3369 29.2699 29.3369 29.9869C29.3369 30.704 28.7558 31.285 28.0388 31.285Z" fill="black"/>
<path d="M37.1254 31.285H34.01C33.2929 31.285 32.7119 30.704 32.7119 29.9869C32.7119 29.2699 33.2929 28.6888 34.01 28.6888H37.1254C37.8425 28.6888 38.4235 29.2699 38.4235 29.9869C38.4235 30.704 37.8425 31.285 37.1254 31.285Z" fill="black"/>
<path d="M71.3952 48.9391H68.2798C67.5627 48.9391 66.9817 48.3581 66.9817 47.641C66.9817 46.9239 67.5627 46.3429 68.2798 46.3429H71.3952C72.1123 46.3429 72.6933 46.9239 72.6933 47.641C72.6933 48.3581 72.1123 48.9391 71.3952 48.9391Z" fill="black"/>
<path d="M80.4819 48.9391H77.3665C76.6494 48.9391 76.0684 48.3581 76.0684 47.641C76.0684 46.9239 76.6494 46.3429 77.3665 46.3429H80.4819C81.199 46.3429 81.78 46.9239 81.78 47.641C81.78 48.3581 81.199 48.9391 80.4819 48.9391Z" fill="black"/>
<path d="M89.5686 48.9391H86.4531C85.7361 48.9391 85.155 48.3581 85.155 47.641C85.155 46.9239 85.7361 46.3429 86.4531 46.3429H89.5686C90.2856 46.3429 90.8666 46.9239 90.8666 47.641C90.8666 48.3581 90.2856 48.9391 89.5686 48.9391Z" fill="black"/>
<path d="M121.242 74.3818H118.127C117.41 74.3818 116.829 73.8007 116.829 73.0837C116.829 72.3666 117.41 71.7856 118.127 71.7856H121.242C121.959 71.7856 122.54 72.3666 122.54 73.0837C122.54 73.8007 121.959 74.3818 121.242 74.3818Z" fill="black"/>
<path d="M125.099 116.868H101.443C99.8269 116.868 98.5117 115.554 98.5117 113.937V66.2957C98.5117 64.6793 99.8264 63.3641 101.443 63.3641H107.173C108.514 63.3641 109.697 64.1585 110.186 65.3881C110.692 66.6602 111.903 67.4822 113.271 67.4822C114.639 67.4822 115.851 66.6602 116.356 65.3881C116.844 64.1585 118.027 63.3641 119.369 63.3641H125.099C126.715 63.3641 128.03 64.6788 128.03 66.2957V113.937C128.03 115.554 126.715 116.868 125.099 116.868V116.868ZM101.443 65.9608C101.258 65.9608 101.108 66.1114 101.108 66.2962V113.937C101.108 114.122 101.258 114.273 101.443 114.273H125.099C125.284 114.273 125.434 114.122 125.434 113.937V66.2962C125.434 66.1119 125.284 65.9608 125.099 65.9608H119.37C119.102 65.9608 118.861 66.1166 118.769 66.3481C117.868 68.6146 115.71 70.0794 113.272 70.0794C110.833 70.0794 108.674 68.6151 107.774 66.3476C107.681 66.1165 107.44 65.9608 107.173 65.9608H101.443Z" fill="black"/>
<path d="M94.7287 116.478H62.2021C61.2223 116.478 60.4258 115.681 60.4258 114.702V42.1038C60.4258 41.124 61.2223 40.3275 62.2021 40.3275H112.657C113.636 40.3275 114.433 41.124 114.433 42.1038V59.5186C114.433 60.2356 113.852 60.8167 113.135 60.8167C112.418 60.8167 111.837 60.2356 111.837 59.5186V42.9237H63.022V113.882H94.7282C95.4453 113.882 96.0263 114.463 96.0263 115.18C96.0263 115.897 95.4453 116.478 94.7287 116.478V116.478Z" fill="black"/>
<path d="M56.2402 86.4437H1.65478C0.937717 86.4437 0.356689 85.8627 0.356689 85.1456C0.356689 84.4286 0.937717 83.8475 1.65478 83.8475H56.2402C56.9573 83.8475 57.5383 84.4286 57.5383 85.1456C57.5383 85.8627 56.9573 86.4437 56.2402 86.4437Z" fill="black"/>
<path d="M6.41675 86.1944C5.69968 86.1944 5.11865 85.6134 5.11865 84.8963V18.6011C5.11865 17.3211 6.16024 16.2795 7.44069 16.2795H112.277C113.558 16.2795 114.6 17.3211 114.6 18.6011V36.0231C114.6 36.7401 114.018 37.3211 113.301 37.3211C112.584 37.3211 112.003 36.7401 112.003 36.0231V18.8763H7.71484V84.8963C7.71484 85.6134 7.13382 86.1944 6.41675 86.1944V86.1944Z" fill="black"/>
<path d="M112.95 25.0541H6.77173C6.05466 25.0541 5.47363 24.4731 5.47363 23.756C5.47363 23.039 6.05466 22.4579 6.77173 22.4579H112.95C113.667 22.4579 114.248 23.039 114.248 23.756C114.248 24.4731 113.667 25.0541 112.95 25.0541Z" fill="black"/>
<path d="M14.7983 24.6648C14.0813 24.6648 13.5002 24.0837 13.5002 23.3667V17.8658C13.5002 17.1488 14.0813 16.5677 14.7983 16.5677C15.5154 16.5677 16.0964 17.1488 16.0964 17.8658V23.3667C16.0964 24.0837 15.5154 24.6648 14.7983 24.6648Z" fill="black"/>
<path d="M31.0168 80.6127H14.6764C12.8829 80.6127 11.4233 79.1531 11.4233 77.3596V56.3456C11.4233 54.5521 12.8829 53.0925 14.6764 53.0925H31.0173C32.8108 53.0925 34.2703 54.5521 34.2703 56.3456V77.3596C34.2698 79.1531 32.8102 80.6127 31.0168 80.6127V80.6127ZM14.6764 55.6892C14.3145 55.6892 14.0195 55.9836 14.0195 56.3461V77.3602C14.0195 77.7221 14.3139 78.017 14.6764 78.017H31.0173C31.3792 78.017 31.6741 77.7226 31.6741 77.3602V56.3461C31.6741 55.9842 31.3797 55.6892 31.0173 55.6892H14.6764Z" fill="black"/>
<path d="M56.0347 80.6127H40.6383C38.8448 80.6127 37.3853 79.1531 37.3853 77.3596V56.3456C37.3853 54.5521 38.8448 53.0925 40.6383 53.0925H56.0944C56.8115 53.0925 57.3925 53.6736 57.3925 54.3906C57.3925 55.1077 56.8115 55.6887 56.0944 55.6887H40.6383C40.2764 55.6887 39.9814 55.9831 39.9814 56.3456V77.3596C39.9814 77.7216 40.2759 78.0165 40.6383 78.0165H56.0347C56.7518 78.0165 57.3328 78.5975 57.3328 79.3146C57.3328 80.0316 56.7518 80.6127 56.0347 80.6127Z" fill="black"/>
<path d="M120.852 99.9247H105.69C104.144 99.9247 102.886 98.6671 102.886 97.1213V93.3704C102.886 91.8241 104.144 90.5665 105.69 90.5665H120.852C122.398 90.5665 123.655 91.8246 123.655 93.3704V97.1213C123.655 98.6671 122.398 99.9247 120.852 99.9247ZM105.69 93.1627C105.575 93.1627 105.483 93.2561 105.483 93.3704V97.1213C105.483 97.2361 105.576 97.3285 105.69 97.3285H120.852C120.967 97.3285 121.059 97.2356 121.059 97.1213V93.3704C121.059 93.2556 120.966 93.1627 120.852 93.1627H105.69Z" fill="black"/>
<path d="M120.852 111.679H105.69C104.144 111.679 102.886 110.421 102.886 108.875V105.124C102.886 103.578 104.144 102.32 105.69 102.32H120.852C122.398 102.32 123.655 103.578 123.655 105.124V108.875C123.655 110.421 122.398 111.679 120.852 111.679ZM105.69 104.917C105.575 104.917 105.483 105.01 105.483 105.124V108.875C105.483 108.99 105.576 109.082 105.69 109.082H120.852C120.967 109.082 121.059 108.989 121.059 108.875V105.124C121.059 105.009 120.966 104.917 120.852 104.917H105.69Z" fill="black"/>
<path d="M120.852 88.1712H105.69C104.144 88.1712 102.886 86.9136 102.886 85.3678V81.6168C102.886 80.0706 104.144 78.8135 105.69 78.8135H120.852C122.398 78.8135 123.655 80.0711 123.655 81.6168V85.3678C123.655 86.9136 122.398 88.1712 120.852 88.1712ZM105.69 81.4091C105.575 81.4091 105.483 81.5021 105.483 81.6163V85.3673C105.483 85.482 105.576 85.5745 105.69 85.5745H120.852C120.967 85.5745 121.059 85.4815 121.059 85.3673V81.6163C121.059 81.5016 120.966 81.4091 120.852 81.4091H105.69Z" fill="black"/>
<path d="M94.6311 74.5298H69.769C67.9589 74.5298 66.4858 73.0572 66.4858 71.2471V63.5443C66.4858 61.7342 67.9589 60.2611 69.769 60.2611H96.1079C96.8249 60.2611 97.406 60.8421 97.406 61.5592C97.406 62.2763 96.8249 62.8573 96.1079 62.8573H69.769C69.3905 62.8573 69.082 63.1657 69.082 63.5443V71.2471C69.082 71.6257 69.3905 71.9336 69.769 71.9336H94.6311C95.3482 71.9336 95.9292 72.5146 95.9292 73.2317C95.9292 73.9487 95.3482 74.5298 94.6311 74.5298Z" fill="black"/>
<path d="M94.6311 92.4435H69.769C67.9589 92.4435 66.4858 90.971 66.4858 89.1609V81.458C66.4858 79.648 67.9589 78.1749 69.769 78.1749H94.68C95.397 78.1749 95.9781 78.7559 95.9781 79.473C95.9781 80.19 95.397 80.7711 94.68 80.7711H69.769C69.3905 80.7711 69.082 81.0795 69.082 81.458V89.1609C69.082 89.5394 69.3905 89.8473 69.769 89.8473H94.6311C95.3482 89.8473 95.9292 90.4284 95.9292 91.1454C95.9292 91.8625 95.3482 92.4435 94.6311 92.4435Z" fill="black"/>
<path d="M94.5501 110.357H69.769C67.9589 110.357 66.4858 108.885 66.4858 107.075V99.3717C66.4858 97.5616 67.9589 96.0886 69.769 96.0886H94.599C95.316 96.0886 95.8971 96.6696 95.8971 97.3867C95.8971 98.1037 95.316 98.6848 94.599 98.6848H69.769C69.3905 98.6848 69.082 98.9932 69.082 99.3717V107.075C69.082 107.453 69.3905 107.761 69.769 107.761H94.5501C95.2672 107.761 95.8482 108.342 95.8482 109.059C95.8482 109.776 95.2672 110.357 94.5501 110.357Z" fill="black"/>
</svg>
