<svg width="73" height="83" viewBox="0 0 73 83" fill="none" xmlns="http://www.w3.org/2000/svg">
<path d="M0 0L6.56672 74.4805L36.495 83L66.3039 74.4805L73 0H0ZM59.1999 17.6674L58.7224 22.3761L58.5532 24.3214H23.5904L24.4063 33.7188H57.7473L57.419 36.1429L55.3097 60.3047L55.1405 61.9208L36.5348 67.0684V67.0983H36.4154L36.3856 67.1083V67.0983H36.3756L17.6107 61.9108L16.4765 47.4856H25.5405L26.1873 54.788L36.3756 57.5513H36.4154L46.564 54.798L47.6982 42.9665H36.3856V42.9565H15.9989L13.7304 17.6674L13.5613 15.2433H59.3591L59.1999 17.6674Z" fill="white"/>
</svg>
