<svg width="83" height="83" viewBox="0 0 83 83" fill="none" xmlns="http://www.w3.org/2000/svg">
<path d="M0 0H83V83H0V0ZM76.2044 63.2097C75.5974 59.4124 73.123 56.2377 65.8164 53.2678C63.2771 52.0799 60.4396 51.2421 59.6018 49.3228C59.2905 48.1867 59.2361 47.5668 59.4384 46.8898C59.9649 44.6462 62.6002 43.9848 64.6803 44.6073C66.0317 45.0249 67.2741 46.052 68.0574 47.7146C71.6368 45.3777 71.6368 45.3777 74.1242 43.824C73.193 42.3793 72.7339 41.7438 72.0985 41.1369C69.9223 38.691 67.0199 37.4486 62.3045 37.5575L59.8586 37.8688C57.5216 38.4368 55.2936 39.6792 53.9422 41.3418C50.0101 45.8004 51.1462 53.5817 55.9135 56.8109C60.6289 60.3358 67.5309 61.1062 68.4231 64.4313C69.2479 68.4854 65.4118 69.7822 61.6145 69.3076C58.8185 68.6851 57.2648 67.2819 55.5478 64.6881L49.2242 68.322C49.9401 69.9846 50.7778 70.7004 52.0202 72.1581C58.0326 78.2249 73.0815 77.9137 75.7816 68.6851C75.875 68.3738 76.6064 66.2392 76.0384 62.984L76.2044 63.2097ZM45.1338 38.1489H37.3656C37.3656 44.8485 37.3241 51.5093 37.3241 58.2245C37.3241 62.4808 37.5393 66.3974 36.852 67.6009C35.703 69.9794 32.772 69.6811 31.4337 69.2635C30.0693 68.5891 29.3664 67.6554 28.5702 66.304C28.3393 65.9383 28.1785 65.6297 28.124 65.6297L21.816 69.5203C22.8691 71.6964 24.4098 73.5743 26.3966 74.7622C29.3561 76.5312 33.3271 77.0992 37.4875 76.1681C40.1902 75.3848 42.5271 73.7766 43.741 71.2918C45.5099 68.0756 45.1313 64.1331 45.1183 59.7133C45.1598 52.6064 45.1183 45.5022 45.1183 38.3408L45.1338 38.1489Z" fill="white"/>
</svg>
