<svg width="95" height="84" viewBox="0 0 95 84" fill="none" xmlns="http://www.w3.org/2000/svg">
<path d="M47.5 33.5818C42.8302 33.5818 39.0272 37.3611 39.0272 42.002C39.0272 46.6429 42.8302 50.4223 47.5 50.4223C52.1698 50.4223 55.9728 46.6429 55.9728 42.002C55.9728 37.3611 52.1698 33.5818 47.5 33.5818ZM23.7797 58.7363L21.9094 58.276C7.99187 54.771 0 48.8409 0 41.9873C0 35.1336 7.99484 29.2035 21.9094 25.6985L23.7797 25.2382L24.3052 27.0822C25.717 31.9119 27.522 36.6195 29.7023 41.1582L30.1031 41.9873L29.7023 42.8311C27.5175 47.3678 25.7123 52.0758 24.3052 56.9071L23.7797 58.7363ZM21.0455 30.0001C10.4678 32.9504 3.97516 37.4821 3.97516 41.9873C3.97516 46.4924 10.4708 51.0064 21.0455 53.9745C22.3418 49.8813 23.9067 45.877 25.7302 41.9873C23.9041 38.0986 22.3392 34.0941 21.0455 30.0001ZM71.2203 58.7363L70.6948 56.8923C69.2855 52.0665 67.4803 47.3637 65.2977 42.8311L64.8969 41.9873L65.2977 41.1435C67.4825 36.6067 69.2877 31.8987 70.6948 27.0674L71.2203 25.2382L73.0906 25.6985C87.0081 29.2035 95 35.1336 95 41.9873C95 48.8409 87.0052 54.771 73.0906 58.276L71.2203 58.7363ZM69.2698 41.9873C71.0994 45.8744 72.6644 49.8791 73.9545 53.9745C84.547 51.0094 91.0248 46.4924 91.0248 41.9873C91.0248 37.4821 84.5292 32.9681 73.9545 30.0001C72.6552 34.0922 71.0903 38.0963 69.2698 41.9873ZM21.0128 29.9853L20.4873 28.1413C16.5745 14.4341 17.765 4.60064 23.75 1.17235C29.6252 -2.19398 39.042 1.78602 48.922 11.8673L50.2669 13.2363L48.922 14.6052C45.4134 18.233 42.2075 22.1384 39.3359 26.2826L38.7956 27.035L37.8664 27.1117C32.815 27.5079 27.8042 28.3101 22.8831 29.5103L21.0128 29.9853ZM28.5267 3.91026C27.4609 3.91026 26.5169 4.12563 25.7272 4.58589C21.7995 6.84584 21.1048 14.6819 23.8094 25.253C28.0293 24.3149 32.3065 23.6526 36.6136 23.2703C39.0933 19.7606 41.8047 16.4184 44.7302 13.2658C38.5611 7.28839 32.7156 3.90731 28.5267 3.90731V3.91026ZM66.4881 83.997C66.4733 83.997 66.4733 83.997 66.4881 83.997C60.8445 83.997 53.5919 79.7869 46.078 72.1043L44.7331 70.7353L46.078 69.3663C49.5866 65.7385 52.7925 61.8332 55.6641 57.6889L56.1895 56.9366L57.1187 56.8451C62.1766 56.4622 67.1935 55.6599 72.1169 54.4465L73.9872 53.9863L74.5127 55.8302C78.4255 69.5375 77.235 79.3562 71.25 82.7815C69.803 83.608 68.1568 84.0272 66.4881 83.9941V83.997ZM50.2669 70.7058C56.4359 76.6832 62.2814 80.0642 66.4703 80.0642H66.4852C67.5361 80.0642 68.4802 79.8341 69.2698 79.3886C73.1975 77.1287 73.91 69.2926 71.1877 58.7215C66.9685 59.6606 62.6909 60.318 58.3834 60.6894C55.9039 64.2039 53.1924 67.5511 50.2669 70.7087V70.7058ZM73.9872 29.9853L72.1169 29.5103C67.19 28.3141 62.1745 27.512 57.1187 27.1117L56.1895 27.035L55.6641 26.2826C52.7925 22.1384 49.5866 18.233 46.078 14.6052L44.7331 13.2363L46.078 11.8673C55.958 1.78602 65.3748 -2.19398 71.25 1.17235C77.235 4.59769 78.4255 14.4341 74.5127 28.1413L73.9872 29.9853ZM58.3864 23.2703C62.6936 23.6515 66.9709 24.3138 71.1906 25.253C73.913 14.6819 73.2005 6.84289 69.2728 4.58589C65.36 2.34363 58.0005 5.78372 50.2698 13.2687C53.1873 16.4281 55.8984 19.7698 58.3864 23.2733V23.2703ZM28.5267 83.997C26.8553 84.0266 25.2017 83.6135 23.75 82.7845C17.765 79.3591 16.5745 69.5375 20.4873 55.8332L21.0128 53.9892L22.8831 54.4495C27.4609 55.603 32.5019 56.3996 37.8664 56.8481L38.7956 56.9395L39.3211 57.6919C42.1927 61.8362 45.3986 65.7415 48.9072 69.3693L50.252 70.7383L48.9072 72.1072C41.4081 79.7899 34.1555 84 28.5267 84V83.997ZM23.8123 58.7215C21.09 69.2926 21.8025 77.1316 25.7302 79.3886C29.643 81.6014 36.9877 78.1908 44.7331 70.7058C41.8076 67.5481 39.0961 64.201 36.6166 60.6865C32.309 60.3162 28.0313 59.6588 23.8123 58.7186V58.7215ZM47.5 61.1939C44.2373 61.1939 40.8975 61.0553 37.5428 60.7779L36.6136 60.7012L36.0733 59.9341C34.1784 57.2283 32.3985 54.4447 30.7384 51.5906C29.0749 48.7364 27.5328 45.8139 26.1161 42.8311L25.7153 41.9873L26.1161 41.1435C28.9543 35.179 32.2848 29.4584 36.0733 24.0404L36.6136 23.2733L37.5428 23.1966C44.1692 22.6419 50.8308 22.6419 57.4572 23.1966L58.3864 23.2733L58.9267 24.0404C62.7201 29.4553 66.0508 35.1763 68.8839 41.1435L69.2847 41.9873L68.8839 42.8311C66.0565 48.8011 62.7256 54.5226 58.9267 59.9341L58.3864 60.7012L57.4572 60.7779C54.1453 61.0534 50.8234 61.1921 47.5 61.1939ZM38.8105 56.9218C44.6559 57.3673 50.3441 57.3673 56.2044 56.9218C59.4727 52.1656 62.3774 47.1724 64.8939 41.9843C62.388 36.7876 59.4777 31.7933 56.1895 27.0468C50.4052 26.6013 44.5948 26.6013 38.8105 27.0468C35.52 31.7918 32.6096 36.7863 30.1061 41.9843C32.6234 47.175 35.5332 52.1685 38.8105 56.9218Z" fill="white"/>
</svg>
