<svg width="112" height="83" viewBox="0 0 112 83" fill="none" xmlns="http://www.w3.org/2000/svg">
<path d="M52.818 62.7491C52.7655 62.8528 52.713 62.9358 52.818 62.7491V62.7491ZM96.4097 47.7065C92.8891 47.7065 89.4174 48.5019 86.2607 50.0407C85.2283 47.9832 84.1609 46.185 83.9859 44.8364C83.7759 43.2629 83.5485 42.3293 83.7935 40.4619C84.0384 38.5946 85.1408 35.9492 85.1233 35.759C85.1058 35.5688 84.8783 34.6178 82.6211 34.6005C80.3638 34.5832 78.4215 35.0328 78.194 35.6207C77.7946 36.6947 77.4844 37.7992 77.2666 38.9231C76.8641 40.9461 72.7555 48.1734 70.4283 51.9427C69.6583 50.473 69.0109 49.1762 68.8709 48.1388C68.6609 46.5654 68.4335 45.6317 68.6784 43.7644C68.9234 41.897 70.0258 39.2516 70.0083 39.0614C69.9908 38.8712 69.7633 37.9203 67.5096 37.903C65.2558 37.8857 63.31 38.3352 63.0825 38.9231C62.855 39.511 62.61 40.8942 62.1551 42.2255C61.7001 43.5569 56.2232 55.5909 54.7918 58.7204C54.0569 60.3111 53.4269 61.5906 52.972 62.4551C52.902 62.5935 52.8495 62.6799 52.8145 62.7491C52.867 62.6626 52.902 62.5762 52.902 62.6108C52.517 63.3542 52.2896 63.7692 52.2896 63.7692V63.7865C51.9921 64.3398 51.6596 64.8412 51.5021 64.8412C51.3971 64.8412 51.1697 63.3888 51.5546 61.4004C52.377 57.2162 54.3194 50.715 54.3019 50.4903C54.2844 50.3692 54.6693 49.2454 53.0245 48.6402C51.4321 48.0696 50.8547 49.0206 50.7147 49.0206C50.5747 49.0206 50.4697 49.3664 50.4697 49.3664C50.4697 49.3664 52.2371 42.0353 47.0751 42.0353C43.8554 42.0353 39.3758 45.528 37.1745 48.6921C35.7922 49.4356 32.8 51.0436 29.6503 52.7553L26.0281 54.7264C25.9406 54.6399 25.8707 54.5535 25.7832 54.467C19.5188 47.8622 7.95591 43.1938 8.44587 34.3239C8.62085 31.0906 9.75824 22.6011 30.6827 12.2961C47.831 3.85845 61.5391 6.17535 63.9014 11.3278C67.2961 18.6762 56.5696 32.3528 38.7634 34.3239C31.9741 35.0674 28.4079 32.4738 27.5155 31.5056C26.5881 30.4854 26.4481 30.4336 26.0981 30.6238C25.5207 30.935 25.8882 31.8341 26.0981 32.3701C26.6231 33.736 28.8104 36.1567 32.5375 37.367C35.8097 38.4217 43.7679 39.0095 53.3884 35.3267C64.1989 31.2116 72.6155 19.7482 70.1448 10.1521C67.632 0.4004 51.2677 -2.7983 35.7957 2.63084C26.5741 5.86412 16.6036 10.9475 9.43277 17.5696C0.911108 25.454 -0.450258 32.3182 0.109687 35.1884C2.10449 45.3724 16.3096 52.0118 21.993 56.9223L21.2056 57.3545C18.3534 58.755 7.52546 64.3571 4.81322 70.2703C1.75103 76.979 5.32067 81.7856 7.66194 82.4427C14.9762 84.4483 22.462 80.8347 26.4866 74.9041C30.5112 68.9736 30.0212 61.2275 28.1664 57.7003C28.1489 57.6484 28.1139 57.6139 28.0964 57.562C30.1961 56.3331 32.3136 55.1342 34.4483 53.9656C33.7484 55.833 33.2409 58.0807 32.9785 61.3313C32.6635 65.1351 34.2558 70.0629 36.3206 71.9994C37.2305 72.8466 38.3294 72.8639 39.0154 72.8639C41.4301 72.8639 42.515 70.8928 43.7224 68.5413C45.2098 65.6711 46.5221 62.3341 46.5221 62.3341C46.5221 62.3341 44.8773 71.3596 49.3743 71.3596C51.0192 71.3596 52.664 69.2675 53.3989 68.1955V68.2128C53.3989 68.2128 53.4339 68.1436 53.5214 68.0053C53.6964 67.746 53.7839 67.5903 53.7839 67.5903V67.5385C54.4488 66.4146 55.9012 63.8384 58.0885 59.585C60.9232 54.0867 63.6319 47.2224 63.6319 47.2224C63.8944 48.7301 64.2584 50.2205 64.7168 51.6833C65.2068 53.3259 66.2392 55.1241 67.0616 56.8704C66.3967 57.7695 65.9942 58.2882 65.9942 58.2882C65.9942 58.302 66.0012 58.3124 66.0117 58.3228C65.4867 59.0144 64.8918 59.7579 64.2794 60.484C62.0431 63.1122 59.3799 66.1207 59.0299 66.9852C58.6099 68.0053 58.7149 68.7661 59.5198 69.354C60.1148 69.8035 61.1647 69.8727 62.2671 69.7862C64.2794 69.6479 65.6967 69.1638 66.3792 68.8525C67.6379 68.4069 68.8275 67.7901 69.9138 67.0198C72.1011 65.4291 73.431 63.1468 73.3085 60.1382C73.2385 58.4784 72.696 56.8185 72.0311 55.2624C72.2236 54.9857 72.4336 54.6918 72.6261 54.3979C74.9032 51.0406 76.9549 47.5393 78.7679 43.9165C79.0304 45.4242 79.3909 46.9146 79.8528 48.3774C80.2728 49.7779 81.0952 51.3167 81.8476 52.821C78.593 55.4318 76.5807 58.4576 75.8842 60.446C74.5894 64.1288 75.6043 65.7887 77.5116 66.1691C78.369 66.342 79.5939 65.9443 80.5038 65.5639C81.8546 65.1178 83.1285 64.4712 84.2799 63.6447C86.4672 62.054 88.5845 59.8236 88.441 56.7978C88.3885 55.4318 88.0035 54.0659 87.4961 52.7518C90.2433 51.6107 93.813 50.9882 98.3625 51.5069C108.106 52.6308 110.013 58.6478 109.645 61.1549C109.278 63.662 107.231 65.0625 106.548 65.4775C105.866 65.8924 105.656 66.0481 105.708 66.3593C105.796 66.8088 106.111 66.7915 106.688 66.6878C107.493 66.5495 111.798 64.6475 111.99 59.9965C112.27 54.1178 106.548 47.6512 96.4167 47.7031L96.4097 47.7065ZM21.3106 72.7256C18.0909 76.2009 13.5799 77.515 11.6376 76.4084C9.55526 75.2119 10.3777 70.0974 14.3463 66.3939C16.761 64.1461 19.8757 62.0713 21.9405 60.7918C22.413 60.5152 23.0954 60.1002 23.9353 59.5988C24.0036 59.5556 24.0736 59.5152 24.1453 59.4778C24.3028 59.374 24.4778 59.2876 24.6528 59.1838C26.1016 64.4401 24.7053 69.0739 21.3106 72.7221V72.7256ZM44.8213 56.9223C43.7014 59.6368 41.3426 66.5529 39.9043 66.1898C38.6794 65.8786 37.927 60.6051 39.6593 55.418C40.5342 52.8072 42.389 49.6949 43.4914 48.4846C45.2587 46.5308 47.2011 45.9084 47.656 46.6864C48.2684 47.7065 45.5212 55.2278 44.8213 56.9223ZM64.2444 66.0861C63.7719 66.3282 63.3345 66.4838 63.1245 66.3627C62.967 66.2763 63.317 65.9478 63.317 65.9478C63.317 65.9478 65.7492 63.3715 66.7116 62.1958C67.2716 61.5042 67.919 60.6915 68.6189 59.7924C68.6189 59.8789 68.6364 59.9653 68.6364 60.0691C68.6154 63.164 65.6057 65.2562 64.2409 66.0861H64.2444ZM79.2229 62.7145C78.8729 62.4724 78.9254 61.6598 80.0978 59.1354C80.5528 58.1499 81.6027 56.49 83.4225 54.8993C83.629 55.501 83.741 56.1304 83.755 56.7666C83.7375 60.657 80.9202 62.1093 79.2229 62.7145Z" fill="white"/>
</svg>
