<svg width="40" height="40" viewBox="0 0 40 40" fill="none" xmlns="http://www.w3.org/2000/svg">
<path d="M20.0816 35.917C24.3521 35.917 28.4477 34.2205 31.4674 31.2008C34.4871 28.1811 36.1836 24.0855 36.1836 19.815C36.1836 15.5445 34.4871 11.4489 31.4674 8.42917C28.4477 5.40946 24.3521 3.713 20.0816 3.713C15.8111 3.713 11.7155 5.40946 8.69577 8.42917C5.67606 11.4489 3.9796 15.5445 3.9796 19.815C3.9796 24.0855 5.67606 28.1811 8.69577 31.2008C11.7155 34.2205 15.8111 35.917 20.0816 35.917ZM20.0816 39.38C9.27585 39.38 0.516602 30.6208 0.516602 19.815C0.516602 9.00925 9.27585 0.25 20.0816 0.25C30.8874 0.25 39.6466 9.00925 39.6466 19.815C39.6466 30.6208 30.8874 39.38 20.0816 39.38Z" fill="white" stroke="black" stroke-width="0.5"/>
<path d="M28.067 15.6142H23.1034V14.3817H28.069V15.6162L28.067 15.6142ZM19.7982 20.673C20.1192 21.1684 20.2777 21.7708 20.2777 22.4781C20.2777 23.2113 20.0994 23.8652 19.7308 24.4458C19.4853 24.8536 19.1572 25.2056 18.7674 25.4789C18.3777 25.7523 17.935 25.941 17.468 26.033C16.8946 26.1476 16.311 26.2034 15.7262 26.1994H10.1741V13.8705H16.1285C17.6285 13.8943 18.6925 14.3302 19.3207 15.1842C19.6972 15.7074 19.8854 16.3355 19.8854 17.0667C19.8854 17.8196 19.6972 18.424 19.3147 18.8817C19.1047 19.1393 18.7916 19.3731 18.3775 19.5832C19.0036 19.813 19.4792 20.1737 19.7982 20.673V20.673ZM13.0175 18.7311H15.6272C16.1622 18.7311 16.5961 18.6301 16.929 18.426C17.2639 18.2219 17.4303 17.8613 17.4303 17.3421C17.4303 16.7675 17.2104 16.387 16.7685 16.2047C16.2964 16.0633 15.8048 15.9978 15.3121 16.0105H13.0175V18.7311V18.7311ZM17.682 22.3018C17.682 21.6618 17.4184 21.2199 16.8973 20.9821C16.604 20.8474 16.1919 20.778 15.6648 20.7721H13.0175V24.0574H15.6232C16.1582 24.0574 16.5743 23.9881 16.8715 23.8414C17.4105 23.5739 17.682 23.0627 17.682 22.3018ZM29.9098 20.2965C29.9693 20.7007 29.997 21.2853 29.9871 22.0501H23.5571C23.5928 22.9379 23.8979 23.5581 24.4805 23.9128C24.8292 24.1367 25.2533 24.2456 25.7526 24.2456C26.2777 24.2456 26.7037 24.1129 27.0347 23.8394C27.2317 23.6712 27.3928 23.465 27.5082 23.2331H29.8662C29.8028 23.7582 29.5195 24.2892 29.0102 24.8302C28.2176 25.6882 27.1119 26.1182 25.6872 26.1182C24.5549 26.1328 23.4535 25.7484 22.5763 25.0323C21.6806 24.3071 21.2289 23.1301 21.2289 21.4953C21.2289 19.9636 21.6351 18.7906 22.4455 17.9742C23.2579 17.1558 24.3101 16.7496 25.606 16.7496C26.3728 16.7496 27.0644 16.8864 27.6826 17.1618C28.2969 17.4392 28.8061 17.8731 29.2064 18.4696C29.569 18.9967 29.8008 19.603 29.9098 20.2965V20.2965ZM27.5915 20.5264C27.5479 19.9121 27.3418 19.4484 26.9732 19.1314C26.5928 18.8074 26.1055 18.6365 25.606 18.6519C25.0115 18.6519 24.5538 18.8243 24.2269 19.1591C23.8999 19.496 23.6958 19.9517 23.6126 20.5264H27.5915V20.5264Z" fill="white"/>
</svg>
