<svg width="42" height="41" viewBox="0 0 42 41" fill="none" xmlns="http://www.w3.org/2000/svg">
<path d="M21.1333 37.15C25.5492 37.15 29.7841 35.3958 32.9066 32.2733C36.0291 29.1508 37.7833 24.9159 37.7833 20.5C37.7833 16.0841 36.0291 11.8492 32.9066 8.72667C29.7841 5.60419 25.5492 3.85 21.1333 3.85C16.7174 3.85 12.4825 5.60419 9.35997 8.72667C6.23749 11.8492 4.4833 16.0841 4.4833 20.5C4.4833 24.9159 6.23749 29.1508 9.35997 32.2733C12.4825 35.3958 16.7174 37.15 21.1333 37.15ZM21.1333 40.75C9.94922 40.75 0.883301 31.6841 0.883301 20.5C0.883301 9.31592 9.94922 0.25 21.1333 0.25C32.3174 0.25 41.3833 9.31592 41.3833 20.5C41.3833 31.6841 32.3174 40.75 21.1333 40.75Z" fill="white" fill-opacity="0.7" stroke="black" stroke-width="0.5"/>
<path d="M21.9572 10.5185C21.6869 10.3396 21.3691 10.2458 21.0449 10.2495C20.7207 10.2531 20.4051 10.354 20.1389 10.539L11.9901 16.2155C11.7758 16.3645 11.6007 16.5631 11.4797 16.7944C11.3587 17.0257 11.2954 17.2829 11.2952 17.5439V23.657C11.2953 23.9248 11.3619 24.1884 11.4889 24.4241C11.6159 24.6599 11.7994 24.8605 12.0229 25.0079L20.3029 30.4814C20.5675 30.656 20.8776 30.7491 21.1946 30.7491C21.5117 30.7491 21.8217 30.656 22.0864 30.4814L30.5324 24.9013C30.7552 24.7538 30.9381 24.5535 31.0648 24.3181C31.1914 24.0828 31.2578 23.8197 31.2581 23.5524V17.5459C31.2585 17.278 31.1924 17.0141 31.0657 16.778C30.9391 16.5419 30.7558 16.3408 30.5324 16.1929L21.9552 10.5185H21.9572ZM28.2651 17.14L25.1429 19.2372L22.2155 17.1093L22.1971 12.9211L28.2651 17.1421V17.14ZM20.0794 12.9273V17.0252L17.0803 19.1203L14.0873 17.1134L20.0794 12.9252V12.9273ZM13.2693 19.1326L15.2045 20.4303L13.2693 21.7853V19.1326V19.1326ZM20.1307 27.8677L14.0893 23.8169L17.1069 21.7074L20.1307 23.7369V27.8677V27.8677ZM18.9827 20.3975L20.9404 19.0301L23.2159 20.5266L21.1987 21.8837L18.9847 20.3975H18.9827ZM22.2647 27.8677V23.7349L25.1552 21.7997L28.2651 23.8435L22.2647 27.8677ZM29.1261 21.855L27.0761 20.5082L29.1261 19.1326V21.855Z" fill="white"/>
</svg>
