<svg width="41" height="40" viewBox="0 0 41 40" fill="none" xmlns="http://www.w3.org/2000/svg">
<path d="M16.8435 29.7409C17.0813 29.7409 17.2616 29.733 17.3805 29.7171C17.52 29.6889 17.6458 29.6141 17.7372 29.5051C17.8561 29.3802 17.9156 29.1999 17.9156 28.9621L17.9076 27.8583C17.9017 27.1548 17.8997 26.596 17.8997 26.1858L17.5272 26.2512C17.229 26.2981 16.9271 26.3167 16.6255 26.3067C16.2465 26.3 15.8687 26.2622 15.496 26.1937C15.1003 26.12 14.728 25.9528 14.41 25.7062C14.0766 25.454 13.8278 25.1064 13.6966 24.7095L13.5341 24.3349C13.3974 24.04 13.2258 23.7625 13.0228 23.5086C12.8406 23.2482 12.5978 23.036 12.3154 22.8903L12.2024 22.811C12.1246 22.7537 12.0541 22.6872 11.9924 22.6128C11.9324 22.5453 11.883 22.4692 11.8457 22.3869C11.814 22.3116 11.8398 22.2482 11.925 22.2007C12.0745 22.1406 12.2359 22.1155 12.3966 22.1273L12.7216 22.1769C12.9396 22.2185 13.2071 22.3493 13.5262 22.5653C13.8432 22.7833 14.1068 23.0627 14.3129 23.4095C14.5626 23.8534 14.8618 24.1922 15.2146 24.4241C15.5259 24.6437 15.8958 24.7651 16.2767 24.7729C16.6334 24.7729 16.9426 24.7471 17.2022 24.6936C17.4549 24.6412 17.7003 24.5587 17.9334 24.4479C18.0305 23.7246 18.2941 23.1657 18.7261 22.7773C18.1652 22.7218 17.6094 22.6238 17.0634 22.484C16.5304 22.3371 16.0178 22.1241 15.5376 21.8499C15.0347 21.5771 14.5903 21.2081 14.2297 20.764C13.8849 20.33 13.6015 19.7632 13.3775 19.0597C13.1441 18.2694 13.0325 17.4482 13.0466 16.6243C13.0466 15.3164 13.4747 14.2007 14.3287 13.2812C13.9285 12.2963 13.9661 11.1925 14.4417 9.96982C14.7568 9.87073 15.2225 9.94405 15.8388 10.1878C16.4551 10.4315 16.9089 10.6396 17.1942 10.814C17.4816 10.9864 17.7095 11.1311 17.8839 11.25C18.8988 10.9681 19.9476 10.8267 21.001 10.8299C22.0711 10.8299 23.1115 10.9686 24.1182 11.252L24.7325 10.8616C25.1566 10.6039 25.654 10.3642 26.2267 10.1482C26.8014 9.93018 27.2393 9.87073 27.5425 9.96982C28.03 11.1925 28.0736 12.2963 27.6713 13.2792C28.5274 14.2007 28.9554 15.3144 28.9554 16.6243C28.9554 17.5437 28.8445 18.3582 28.6225 19.0676C28.4006 19.7771 28.1132 20.3438 27.7625 20.7719C27.3959 21.2117 26.9494 21.5781 26.4466 21.8519C25.9665 22.1261 25.4539 22.3392 24.9208 22.486C24.3741 22.6253 23.8176 22.7226 23.2562 22.7773C23.819 23.2628 24.1003 24.0317 24.1003 25.082V28.9601C24.1003 29.1444 24.1281 29.293 24.1816 29.408C24.2068 29.4627 24.2427 29.5118 24.2874 29.5524C24.332 29.5929 24.3843 29.624 24.4412 29.6438C24.5601 29.6854 24.6671 29.7132 24.7583 29.7231C24.8514 29.735 24.9822 29.7409 25.1546 29.7409H16.8455H16.8435Z" fill="white"/>
<path d="M20.45 35.92C24.7208 35.92 28.8168 34.2234 31.8367 31.2034C34.8567 28.1835 36.5533 24.0875 36.5533 19.8167C36.5533 15.5458 34.8567 11.4499 31.8367 8.42989C28.8168 5.40993 24.7208 3.71333 20.45 3.71333C16.1791 3.71333 12.0832 5.40993 9.06319 8.42989C6.04323 11.4499 4.34663 15.5458 4.34663 19.8167C4.34663 24.0875 6.04323 28.1835 9.06319 31.2034C12.0832 34.2234 16.1791 35.92 20.45 35.92ZM20.45 39.3833C9.64329 39.3833 0.883301 30.6233 0.883301 19.8167C0.883301 9.00999 9.64329 0.25 20.45 0.25C31.2566 0.25 40.0166 9.00999 40.0166 19.8167C40.0166 30.6233 31.2566 39.3833 20.45 39.3833Z" fill="white" fill-opacity="0.7" stroke="black" stroke-width="0.5"/>
</svg>
