<svg width="42" height="41" viewBox="0 0 42 41" fill="none" xmlns="http://www.w3.org/2000/svg">
<path d="M12.846 37.1264H12.846H29.4185C30.5139 37.1264 31.5986 36.9106 32.6105 36.4915C33.6225 36.0723 34.5421 35.4579 35.3166 34.6833C36.0912 33.9088 36.7056 32.9892 37.1248 31.9772C37.5437 30.9659 37.7594 29.882 37.7597 28.7873C37.7597 28.7866 37.7597 28.7859 37.7597 28.7852V12.2148C37.7597 10.0029 36.8812 7.88164 35.3174 6.31743C33.7536 4.75322 31.6325 3.87418 29.4206 3.87362H29.4206H12.8481C10.6362 3.87362 8.51495 4.75212 6.95074 6.31594C5.38652 7.87975 4.50748 10.0008 4.50692 12.2127V12.2127V28.7852C4.50692 30.9971 5.38542 33.1184 6.94924 34.6826C8.51305 36.2468 10.6341 37.1258 12.846 37.1264ZM4.39059 3.75871C6.63331 1.51562 9.67423 0.253768 12.8462 0.25H29.4184C32.5904 0.253229 35.6315 1.51457 37.8746 3.75729C40.1177 6.00004 41.3796 9.04102 41.3833 12.213V28.785C41.3801 31.957 40.1188 34.9982 37.876 37.2413C35.6333 39.4844 32.5923 40.7463 29.4203 40.75H12.8483C9.67633 40.7468 6.63514 39.4855 4.39202 37.2427C2.14892 35 0.887068 31.9591 0.883301 28.7871V12.2149C0.88653 9.04295 2.14787 6.00181 4.39059 3.75871Z" fill="white" fill-opacity="0.7" stroke="black" stroke-width="0.5"/>
<path d="M21.1326 9.89624C18.3221 9.90059 15.628 11.0191 13.6409 13.0066C11.6538 14.9941 10.5358 17.6885 10.532 20.4989C10.5352 23.3101 11.6533 26.0053 13.6409 27.9933C15.6285 29.9813 18.3235 31.0999 21.1347 31.1037C23.9462 31.1004 26.6417 29.9821 28.6298 27.994C30.6179 26.006 31.7362 23.3105 31.7394 20.4989C31.7351 17.6877 30.616 14.993 28.6276 13.0058C26.6392 11.0185 23.9438 9.90101 21.1326 9.89829V9.89624ZM21.1326 26.9801C19.4143 26.9801 17.7663 26.2975 16.5512 25.0824C15.3362 23.8673 14.6535 22.2194 14.6535 20.501C14.6535 18.7826 15.3362 17.1347 16.5512 15.9196C17.7663 14.7045 19.4143 14.0219 21.1326 14.0219C22.851 14.0219 24.499 14.7045 25.714 15.9196C26.9291 17.1347 27.6117 18.7826 27.6117 20.501C27.6117 22.2194 26.9291 23.8673 25.714 25.0824C24.499 26.2975 22.851 26.9801 21.1326 26.9801V26.9801Z" fill="white"/>
<path d="M31.7573 12.5166C33.1603 12.5166 34.2976 11.3793 34.2976 9.97633C34.2976 8.57336 33.1603 7.43604 31.7573 7.43604C30.3544 7.43604 29.217 8.57336 29.217 9.97633C29.217 11.3793 30.3544 12.5166 31.7573 12.5166Z" fill="white"/>
</svg>
