<svg width="40" height="40" viewBox="0 0 40 40" fill="none" xmlns="http://www.w3.org/2000/svg">
<path d="M29.7251 22.0559V29.3821H25.4784V22.5454C25.4784 20.8293 24.8641 19.6581 23.3263 19.6581C22.1532 19.6581 21.4536 20.4468 21.1465 21.2117C21.0355 21.4852 21.0058 21.8657 21.0058 22.2462V29.3821H16.7571C16.7571 29.3821 16.8146 17.8053 16.7571 16.6063H21.0058V18.4156L20.978 18.4572H21.0058V18.4176C21.5706 17.5457 22.5772 16.3051 24.8344 16.3051C27.6285 16.3051 29.7251 18.1322 29.7251 22.0559V22.0559ZM12.3122 10.4453C10.8596 10.4453 9.90845 11.4005 9.90845 12.6529C9.90845 13.8816 10.8319 14.8625 12.2567 14.8625H12.2845C13.7668 14.8625 14.6882 13.8796 14.6882 12.6529C14.6605 11.4005 13.7668 10.4453 12.3122 10.4453ZM10.1601 29.3821H14.4088V16.6063H10.1601V29.3821V29.3821Z" fill="white"/>
<path d="M19.8167 35.92C24.0875 35.92 28.1835 34.2234 31.2034 31.2034C34.2234 28.1835 35.92 24.0875 35.92 19.8167C35.92 15.5458 34.2234 11.4499 31.2034 8.42989C28.1835 5.40993 24.0875 3.71333 19.8167 3.71333C15.5458 3.71333 11.4499 5.40993 8.42989 8.42989C5.40993 11.4499 3.71333 15.5458 3.71333 19.8167C3.71333 24.0875 5.40993 28.1835 8.42989 31.2034C11.4499 34.2234 15.5458 35.92 19.8167 35.92ZM19.8167 39.3833C9.00999 39.3833 0.25 30.6233 0.25 19.8167C0.25 9.00999 9.00999 0.25 19.8167 0.25C30.6233 0.25 39.3833 9.00999 39.3833 19.8167C39.3833 30.6233 30.6233 39.3833 19.8167 39.3833Z" fill="white" fill-opacity="0.7" stroke="black" stroke-width="0.5"/>
</svg>
