<svg width="21" height="21" viewBox="0 0 21 21" fill="none" xmlns="http://www.w3.org/2000/svg">
<path d="M11.32 20.19L9.69 16.36C11.26 15.78 12.73 15 14.09 14.09L11.32 20.19V20.19ZM3.83 10.5L0 8.87L6.1 6.1C5.19 7.46 4.41 8.93 3.83 10.5ZM17.41 2C17.69 2 17.94 2 18.15 2.05C18.32 3.44 18.13 6.3 14.85 9.58C13.15 11.29 11.12 12.6 8.84 13.47L6.69 11.37C7.61 9.06 8.92 7.03 10.61 5.34C13.37 2.58 15.83 2 17.41 2ZM17.41 0C15.43 0 12.43 0.69 9.19 3.93C7 6.12 5.69 8.53 4.84 10.64C4.56 11.39 4.75 12.21 5.3 12.77L7.43 14.89C7.81 15.27 8.32 15.5 8.85 15.5C9.08 15.5 9.32 15.44 9.55 15.35C12.0685 14.3897 14.3553 12.9072 16.26 11C21.92 5.34 19.8 0.39 19.8 0.39C19.8 0.39 18.89 0 17.41 0ZM12.73 7.46C11.95 6.68 11.95 5.41 12.73 4.63C13.51 3.85 14.78 3.85 15.56 4.63C16.33 5.41 16.34 6.68 15.56 7.46C14.78 8.24 13.51 8.24 12.73 7.46V7.46ZM7.07 14.53L5.66 13.12L7.07 14.53ZM4.43 20L8.07 16.36C7.73 16.27 7.4 16.12 7.1 15.91L3.02 20H4.43ZM0.19 20H1.6L6.37 15.24L4.95 13.83L0.19 18.59V20ZM0.19 17.17L4.28 13.09C4.07 12.79 3.92 12.47 3.83 12.12L0.19 15.76V17.17Z" fill="white"/>
</svg>
