<svg width="231" height="200" viewBox="0 0 231 200" fill="none" xmlns="http://www.w3.org/2000/svg">
<path d="M42.323 38.3613C43.3275 38.3613 44.3309 38.672 45.1877 39.2955C46.9053 40.5424 47.6154 42.7368 46.9552 44.7539L42.5553 58.1941L54.0355 66.4969C55.7541 67.7387 56.4692 69.929 55.8162 71.9461C55.1632 73.9632 53.3009 75.3191 51.1799 75.3191L37.0062 75.3191L32.6653 88.7502C32.0123 90.7683 30.1491 92.1243 28.028 92.1243C25.907 92.1243 24.0427 90.7683 23.3907 88.7502L22.0684 84.66C21.6253 83.2898 22.3771 81.8197 23.7483 81.3766C25.1185 80.9334 26.5886 81.6852 27.0317 83.0554L28.028 86.1371L32.1203 73.4773C32.7723 71.4591 34.6356 70.1032 36.7576 70.1032L50.1215 70.1032L39.2963 62.2732C37.5726 61.0272 36.8585 58.8308 37.5207 56.8086L41.6669 44.1406L30.9009 51.9992C29.1823 53.2532 26.8728 53.2532 25.1542 51.9992L14.3881 44.1406L18.5344 56.8086C19.1966 58.8308 18.4825 61.0272 16.7587 62.2742L5.93362 70.1032L10.5088 70.1032C11.9483 70.1032 13.1168 71.2707 13.1168 72.7112C13.1168 74.1517 11.9483 75.3191 10.5088 75.3191L4.87515 75.3191C2.75515 75.3191 0.891878 73.9632 0.238863 71.9461C-0.414148 69.929 0.302023 67.7387 2.01962 66.4969L13.4998 58.1941L9.10088 44.7539C8.43972 42.7368 9.1508 40.5434 10.8674 39.2955C12.585 38.0475 14.8904 38.0506 16.6049 39.3016L28.028 47.639L39.4502 39.3016C40.309 38.6741 41.3165 38.3613 42.323 38.3613ZM20.9397 70.8071C21.6222 70.8071 22.3048 71.073 22.8162 71.6038C22.8264 71.614 22.8478 71.6364 22.8579 71.6466C23.84 72.7 23.783 74.3503 22.7306 75.3334C21.6803 76.3134 20.034 76.2584 19.0509 75.2122C18.0638 74.1751 18.0974 72.5349 19.1294 71.5396C19.6346 71.0506 20.2877 70.8071 20.9397 70.8071Z" fill="black"/>
<path d="M32.5102 140.857C32.6793 140.857 32.8505 140.866 33.0216 140.883C35.11 141.103 36.8032 142.632 37.2362 144.687L40.4951 160.187L56.2519 161.809C58.3414 162.024 60.0376 163.548 60.4746 165.603C60.9117 167.657 59.9815 169.74 58.16 170.786L44.4254 178.676L47.7526 194.162C48.1937 196.216 47.2677 198.301 45.4492 199.351C43.6298 200.401 41.361 200.16 39.8044 198.751L28.0563 188.126L14.3553 196.077C12.5399 197.131 10.2701 196.895 8.70942 195.49C7.14871 194.084 6.67703 191.852 7.53481 189.936L14.0089 175.48L2.21495 164.906C0.651191 163.504 0.174419 161.273 1.02813 159.355C1.88285 157.436 3.86124 156.298 5.94762 156.522L21.6973 158.212L28.1083 143.728C28.8886 141.964 30.6164 140.857 32.5102 140.857ZM54.5017 166.872L39.675 165.346C37.5805 165.131 35.8833 163.602 35.4503 161.542L32.3829 146.957L26.3509 160.586C25.4982 162.511 23.5209 163.654 21.4274 163.429L6.60674 161.839L17.7059 171.788C19.2727 173.193 19.7475 175.428 18.8876 177.348L12.7956 190.951L25.6867 183.471C27.5082 182.414 29.78 182.654 31.3407 184.065L42.3961 194.063L39.2655 179.491C38.8223 177.432 39.7524 175.344 41.578 174.296L54.5017 166.872Z" fill="black"/>
<path d="M188.284 -9.00276e-05C188.447 -9.00134e-05 188.612 0.00908053 188.778 0.0263955C190.796 0.238294 192.433 1.71445 192.849 3.69997L195.839 17.9185L210.292 19.4059C212.31 19.6137 213.949 21.0858 214.371 23.0703C214.793 25.0548 213.894 27.0678 212.135 28.0784L199.537 35.3155L202.588 49.5198C203.015 51.5033 202.121 53.5184 200.364 54.533C198.606 55.5467 196.415 55.3144 194.91 53.9534L184.134 44.2081L171.568 51.5002C169.813 52.518 167.621 52.2898 166.112 50.9328C164.605 49.5748 164.149 47.4182 164.979 45.5671L170.917 32.3072L160.099 22.6088C158.588 21.2549 158.128 19.0992 158.953 17.2461C159.778 15.392 161.688 14.2918 163.704 14.5088L178.151 16.0593L184.031 2.77394C184.785 1.0706 186.455 0.000928337 188.284 -9.00276e-05ZM208.037 24.4171L194.9 23.0652C192.878 22.8574 191.238 21.3802 190.819 19.3906L188.101 6.46585L182.757 18.542C181.934 20.4022 180.021 21.5075 177.999 21.2885L164.869 19.8796L174.701 28.6947C176.216 30.0517 176.675 32.2114 175.843 34.0666L170.446 46.1203L181.868 39.4913C183.628 38.4706 185.823 38.7018 187.331 40.0659L197.126 48.9239L194.352 36.0124C193.924 34.0238 194.823 32.0077 196.586 30.9951L208.037 24.4171Z" fill="black"/>
<path d="M127.505 154.972C128.946 154.972 130.113 156.139 130.113 157.58L130.113 161.182C130.113 162.622 128.946 163.79 127.505 163.79C126.065 163.79 124.897 162.622 124.897 161.182L124.897 157.58C124.897 156.139 126.065 154.972 127.505 154.972Z" fill="black"/>
<path d="M127.505 137.71C128.946 137.71 130.113 138.877 130.113 140.318L130.113 143.92C130.113 145.361 128.946 146.528 127.505 146.528C126.065 146.528 124.897 145.361 124.897 143.92L124.897 140.318C124.897 138.877 126.065 137.71 127.505 137.71Z" fill="black"/>
<path d="M117.074 148.142L120.676 148.142C122.115 148.142 123.284 149.309 123.284 150.75C123.284 152.19 122.115 153.358 120.676 153.358L117.074 153.358C115.633 153.358 114.466 152.19 114.466 150.75C114.466 149.309 115.633 148.142 117.074 148.142Z" fill="black"/>
<path d="M134.335 148.142L137.937 148.142C139.378 148.142 140.545 149.309 140.545 150.75C140.545 152.19 139.378 153.358 137.937 153.358L134.335 153.358C132.895 153.358 131.727 152.19 131.727 150.75C131.727 149.309 132.895 148.142 134.335 148.142Z" fill="black"/>
<path d="M101.102 52.3776C102.542 52.3776 103.71 53.5451 103.71 54.9856L103.71 58.5869C103.71 60.0273 102.542 61.1948 101.102 61.1948C99.6619 61.1948 98.4944 60.0273 98.4944 58.5869L98.4944 54.9856C98.4944 53.5451 99.6619 52.3776 101.102 52.3776Z" fill="black"/>
<path d="M101.102 35.1149C102.542 35.1149 103.71 36.2824 103.71 37.7229L103.71 41.3251C103.71 42.7656 102.542 43.9331 101.102 43.9331C99.6619 43.9331 98.4944 42.7656 98.4944 41.3251L98.4944 37.7229C98.4944 36.2824 99.6619 35.1149 101.102 35.1149Z" fill="black"/>
<path d="M90.6704 45.5467L94.2717 45.5467C95.7122 45.5467 96.8796 46.7142 96.8796 48.1547C96.8796 49.5952 95.7122 50.7627 94.2717 50.7627L90.6704 50.7627C89.2299 50.7627 88.0625 49.5952 88.0625 48.1547C88.0625 46.7142 89.2299 45.5467 90.6704 45.5467Z" fill="black"/>
<path d="M107.932 45.5467L111.534 45.5467C112.974 45.5467 114.142 46.7142 114.142 48.1547C114.142 49.5952 112.974 50.7627 111.534 50.7627L107.932 50.7627C106.491 50.7627 105.324 49.5952 105.324 48.1547C105.324 46.7142 106.491 45.5467 107.932 45.5467Z" fill="black"/>
<path d="M158.435 91.6052C159.874 91.6052 161.043 92.7726 161.043 94.2131L161.043 97.8144C161.043 99.2549 159.874 100.422 158.435 100.422C156.994 100.422 155.827 99.2549 155.827 97.8144L155.827 94.2131C155.827 92.7726 156.994 91.6052 158.435 91.6052Z" fill="black"/>
<path d="M158.435 74.3424C159.874 74.3424 161.043 75.5099 161.043 76.9504L161.043 80.5527C161.043 81.9932 159.874 83.1606 158.435 83.1606C156.994 83.1606 155.827 81.9932 155.827 80.5527L155.827 76.9504C155.827 75.5099 156.994 74.3424 158.435 74.3424Z" fill="black"/>
<path d="M148.003 84.7743L151.604 84.7743C153.045 84.7743 154.212 85.9418 154.212 87.3823C154.212 88.8228 153.045 89.9902 151.604 89.9902L148.003 89.9902C146.562 89.9902 145.395 88.8228 145.395 87.3823C145.395 85.9418 146.562 84.7743 148.003 84.7743Z" fill="black"/>
<path d="M165.264 84.7743L168.867 84.7743C170.306 84.7743 171.475 85.9418 171.475 87.3823C171.475 88.8228 170.306 89.9902 168.867 89.9902L165.264 89.9902C163.824 89.9902 162.657 88.8228 162.657 87.3823C162.657 85.9418 163.824 84.7743 165.264 84.7743Z" fill="black"/>
<path d="M222.492 65.1608C226.807 65.1608 230.316 68.6703 230.316 72.9847C230.316 77.299 226.807 80.8086 222.492 80.8086C218.178 80.8086 214.668 77.299 214.668 72.9847C214.668 68.6703 218.178 65.1608 222.492 65.1608ZM222.492 75.5926C223.931 75.5926 225.1 74.4231 225.1 72.9847C225.1 71.5472 223.931 70.3767 222.492 70.3767C221.054 70.3767 219.884 71.5472 219.884 72.9847C219.884 74.4231 221.054 75.5926 222.492 75.5926Z" fill="black"/>
<path d="M94.2482 92.3182C98.5625 92.3182 102.072 95.8288 102.072 100.142C102.072 104.457 98.5625 107.966 94.2482 107.966C89.9338 107.966 86.4242 104.457 86.4242 100.142C86.4242 95.8288 89.9338 92.3182 94.2482 92.3182ZM94.2482 102.75C95.6866 102.75 96.8561 101.581 96.8561 100.142C96.8561 98.7047 95.6866 97.5342 94.2482 97.5342C92.8097 97.5342 91.6402 98.7047 91.6402 100.142C91.6402 101.581 92.8097 102.75 94.2482 102.75Z" fill="black"/>
</svg>
