<svg width="248" height="216" viewBox="0 0 248 216" fill="none" xmlns="http://www.w3.org/2000/svg">
<path d="M202.427 174.05C201.346 174.05 200.265 173.715 199.343 173.044C197.493 171.701 196.729 169.338 197.44 167.166L202.177 152.694L189.816 143.754C187.965 142.417 187.195 140.058 187.898 137.886C188.601 135.714 190.607 134.254 192.89 134.254H208.152L212.827 119.792C213.53 117.619 215.536 116.159 217.82 116.159C220.104 116.159 222.111 117.619 222.813 119.792L224.237 124.196C224.714 125.672 223.905 127.254 222.428 127.732C220.953 128.209 219.37 127.399 218.893 125.924L217.82 122.606L213.413 136.237C212.711 138.411 210.705 139.871 208.42 139.871H194.03L205.687 148.302C207.543 149.643 208.312 152.008 207.599 154.186L203.134 167.827L214.727 159.365C216.577 158.014 219.064 158.014 220.915 159.365L232.507 167.827L228.043 154.186C227.33 152.008 228.098 149.643 229.955 148.301L241.611 139.871H236.684C235.134 139.871 233.876 138.613 233.876 137.062C233.876 135.511 235.134 134.254 236.684 134.254H242.751C245.033 134.254 247.04 135.714 247.743 137.886C248.446 140.058 247.675 142.417 245.825 143.754L233.464 152.694L238.2 167.166C238.912 169.338 238.147 171.7 236.298 173.044C234.449 174.387 231.966 174.384 230.12 173.037L217.82 164.06L205.521 173.037C204.596 173.713 203.511 174.05 202.427 174.05ZM225.453 139.113C224.718 139.113 223.983 138.826 223.432 138.255C223.421 138.244 223.398 138.22 223.387 138.209C222.33 137.074 222.391 135.297 223.524 134.239C224.655 133.184 226.428 133.243 227.486 134.369C228.549 135.486 228.513 137.252 227.402 138.324C226.858 138.85 226.155 139.113 225.453 139.113Z" fill="black"/>
<path d="M212.994 63.6842C212.812 63.6842 212.627 63.6743 212.443 63.6556C210.194 63.4187 208.371 61.7733 207.905 59.5596L204.396 42.8694L187.429 41.123C185.179 40.8915 183.353 39.2505 182.882 37.0379C182.412 34.8265 183.413 32.5832 185.374 31.4566L200.164 22.9617L196.581 6.28577C196.106 4.0743 197.103 1.82992 199.061 0.698951C201.02 -0.432014 203.463 -0.172035 205.139 1.34506L217.79 12.7852L232.543 4.22458C234.497 3.08923 236.941 3.34372 238.622 4.85643C240.302 6.37023 240.81 8.77367 239.887 10.837L232.916 26.4029L245.615 37.7882C247.299 39.2977 247.812 41.7 246.893 43.7656C245.973 45.8323 243.842 47.0576 241.596 46.8162L224.637 44.9964L217.734 60.5929C216.893 62.4918 215.033 63.6842 212.994 63.6842ZM189.314 35.6711L205.279 37.3144C207.534 37.5458 209.362 39.1924 209.828 41.4104L213.131 57.1156L219.626 42.4405C220.544 40.3672 222.673 39.1364 224.927 39.3788L240.886 41.0912L228.935 30.3783C227.248 28.8656 226.736 26.4589 227.662 24.3911L234.222 9.74338L220.341 17.7984C218.38 18.9359 215.933 18.6781 214.253 17.1588L202.349 6.39327L205.72 22.0842C206.197 24.3011 205.195 26.5488 203.23 27.6776L189.314 35.6711Z" fill="black"/>
<path d="M45.259 215.356C45.0835 215.356 44.9058 215.346 44.727 215.328C42.555 215.099 40.7922 213.51 40.3436 211.372L37.124 196.062L21.5614 194.46C19.3883 194.236 17.6233 192.651 17.1692 190.514C16.7151 188.378 17.6826 186.21 19.577 185.122L33.142 177.329L29.8566 162.034C29.397 159.898 30.3601 157.728 32.2524 156.636C34.1446 155.544 36.5042 155.795 38.1244 157.26L49.728 167.754L63.259 159.902C65.1491 158.806 67.5087 159.051 69.1333 160.513C70.7568 161.975 71.2471 164.297 70.3542 166.29L63.96 180.568L75.6086 191.011C77.2354 192.469 77.7312 194.79 76.8427 196.786C75.9541 198.782 73.8973 199.967 71.7265 199.733L56.1705 198.064L49.8388 212.369C49.0271 214.203 47.2292 215.355 45.259 215.356ZM23.9901 189.064L38.1354 190.52C40.3128 190.744 42.0789 192.334 42.5298 194.477L45.4565 208.394L51.2111 195.39C52.0975 193.387 54.1565 192.197 56.3339 192.433L70.4726 193.95L59.8848 184.458C58.2536 182.997 57.76 180.671 58.6551 178.674L64.4668 165.695L52.1677 172.833C50.2732 173.932 47.9093 173.683 46.2858 172.214L35.7385 162.676L38.7255 176.579C39.1863 178.72 38.2187 180.891 36.3199 181.981L23.9901 189.064Z" fill="black"/>
<path d="M110.705 48.4855C109.153 48.4855 107.896 47.2284 107.896 45.6773V41.7985C107.896 40.2473 109.153 38.9902 110.705 38.9902C112.256 38.9902 113.513 40.2473 113.513 41.7985V45.6773C113.513 47.2284 112.256 48.4855 110.705 48.4855Z" fill="black"/>
<path d="M110.705 67.0727C109.153 67.0727 107.896 65.8156 107.896 64.2645V60.3856C107.896 58.8345 109.153 57.5774 110.705 57.5774C112.256 57.5774 113.513 58.8345 113.513 60.3856V64.2645C113.513 65.8156 112.256 67.0727 110.705 67.0727Z" fill="black"/>
<path d="M121.937 55.8398H118.059C116.509 55.8398 115.25 54.5827 115.25 53.0316C115.25 51.4805 116.509 50.2234 118.059 50.2234H121.937C123.489 50.2234 124.746 51.4805 124.746 53.0316C124.746 54.5827 123.489 55.8398 121.937 55.8398Z" fill="black"/>
<path d="M103.351 55.8398H99.4717C97.9206 55.8398 96.6635 54.5827 96.6635 53.0316C96.6635 51.4805 97.9206 50.2234 99.4717 50.2234H103.351C104.902 50.2234 106.159 51.4805 106.159 53.0316C106.159 54.5827 104.902 55.8398 103.351 55.8398Z" fill="black"/>
<path d="M139.135 158.957C137.585 158.957 136.327 157.7 136.327 156.149V152.271C136.327 150.72 137.585 149.463 139.135 149.463C140.686 149.463 141.943 150.72 141.943 152.271V156.149C141.943 157.7 140.686 158.957 139.135 158.957Z" fill="black"/>
<path d="M139.135 177.545C137.585 177.545 136.327 176.288 136.327 174.737V170.858C136.327 169.307 137.585 168.05 139.135 168.05C140.686 168.05 141.943 169.307 141.943 170.858V174.737C141.943 176.288 140.686 177.545 139.135 177.545Z" fill="black"/>
<path d="M150.368 166.312H146.49C144.939 166.312 143.682 165.055 143.682 163.504C143.682 161.953 144.939 160.696 146.49 160.696H150.368C151.919 160.696 153.176 161.953 153.176 163.504C153.176 165.055 151.919 166.312 150.368 166.312Z" fill="black"/>
<path d="M131.781 166.312H127.902C126.352 166.312 125.094 165.055 125.094 163.504C125.094 161.953 126.352 160.696 127.902 160.696H131.781C133.332 160.696 134.589 161.953 134.589 163.504C134.589 165.055 133.332 166.312 131.781 166.312Z" fill="black"/>
<path d="M77.4003 116.718C75.8503 116.718 74.5921 115.46 74.5921 113.909V110.032C74.5921 108.481 75.8503 107.223 77.4003 107.223C78.9514 107.223 80.2085 108.481 80.2085 110.032V113.909C80.2085 115.46 78.9514 116.718 77.4003 116.718Z" fill="black"/>
<path d="M77.4003 135.306C75.8503 135.306 74.5921 134.049 74.5921 132.498V128.619C74.5921 127.068 75.8503 125.811 77.4003 125.811C78.9514 125.811 80.2085 127.068 80.2085 128.619V132.498C80.2085 134.049 78.9514 135.306 77.4003 135.306Z" fill="black"/>
<path d="M88.6333 124.073H84.7555C83.2044 124.073 81.9473 122.816 81.9473 121.265C81.9473 119.713 83.2044 118.456 84.7555 118.456H88.6333C90.1844 118.456 91.4415 119.713 91.4415 121.265C91.4415 122.816 90.1844 124.073 88.6333 124.073Z" fill="black"/>
<path d="M70.0463 124.073H66.1675C64.6175 124.073 63.3593 122.816 63.3593 121.265C63.3593 119.713 64.6175 118.456 66.1675 118.456H70.0463C71.5974 118.456 72.8545 119.713 72.8545 121.265C72.8545 122.816 71.5974 124.073 70.0463 124.073Z" fill="black"/>
<path d="M8.42465 145.192C3.77902 145.192 0 141.413 0 136.768C0 132.122 3.77902 128.343 8.42465 128.343C13.0703 128.343 16.8493 132.122 16.8493 136.768C16.8493 141.413 13.0703 145.192 8.42465 145.192ZM8.42465 133.959C6.87574 133.959 5.61643 135.219 5.61643 136.768C5.61643 138.315 6.87574 139.576 8.42465 139.576C9.97355 139.576 11.2329 138.315 11.2329 136.768C11.2329 135.219 9.97355 133.959 8.42465 133.959Z" fill="black"/>
<path d="M146.515 115.95C141.87 115.95 138.091 112.17 138.091 107.525C138.091 102.879 141.87 99.1003 146.515 99.1003C151.161 99.1003 154.94 102.879 154.94 107.525C154.94 112.17 151.161 115.95 146.515 115.95ZM146.515 104.717C144.966 104.717 143.707 105.976 143.707 107.525C143.707 109.073 144.966 110.333 146.515 110.333C148.064 110.333 149.324 109.073 149.324 107.525C149.324 105.976 148.064 104.717 146.515 104.717Z" fill="black"/>
</svg>
